<svg xmlns="http://www.w3.org/2000/svg" xmlns:xlink="http://www.w3.org/1999/xlink" width="282.687" height="285.151" viewBox="0 0 282.687 285.151">
  <defs>
    <linearGradient id="linear-gradient" x1="1" y1="0.365" x2="0.5" y2="1" gradientUnits="objectBoundingBox">
      <stop offset="0" stop-color="#5fffc0"/>
      <stop offset="1" stop-color="#308060"/>
    </linearGradient>
    <filter id="Path_14235" x="26.744" y="20.944" width="234.999" height="243.263" filterUnits="userSpaceOnUse">
      <feOffset input="SourceAlpha"/>
      <feGaussianBlur stdDeviation="4.5" result="blur"/>
      <feFlood flood-color="#00ff9b"/>
      <feComposite operator="in" in2="blur"/>
      <feComposite in="SourceGraphic"/>
    </filter>
    <linearGradient id="linear-gradient-3" x1="1.11" y1="0.322" x2="0.979" y2="0.898" xlink:href="#linear-gradient"/>
  </defs>
  <g id="Group_1773" data-name="Group 1773" transform="translate(0 31.267)" style="mix-blend-mode: normal;isolation: isolate">
    <g id="Group_1819" data-name="Group 1819" transform="translate(30.244 3.176)">
      <g id="Ellipse_122" data-name="Ellipse 122" transform="translate(0 27.733)" fill="none" stroke="#3e56ae" stroke-width="1">
        <ellipse cx="89" cy="85.916" rx="89" ry="85.916" stroke="none"/>
        <ellipse cx="89" cy="85.916" rx="88.5" ry="85.416" fill="none"/>
      </g>
      <g id="Group_1818" data-name="Group 1818" transform="matrix(0.839, -0.545, 0.545, 0.839, 10, 75.867)">
        <g id="Group_1817" data-name="Group 1817">
          <g transform="matrix(0.84, 0.54, -0.54, 0.84, 26.33, -114.43)" filter="url(#Path_14235)">
            <path id="Path_14235-2" data-name="Path 14235" d="M.011,149.819a5.586,5.586,0,0,1,8.48-5.13A78.706,78.706,0,0,0,90.544,10.356,5.587,5.587,0,0,1,96.369.821a89.875,89.875,0,0,1-93.7,153.4A5.575,5.575,0,0,1,.011,149.819Z" transform="matrix(0.84, -0.54, 0.54, 0.84, 40.24, 110.31)" fill="url(#linear-gradient)"/>
          </g>
        </g>
      </g>
      <g id="Group_1822" data-name="Group 1822" transform="matrix(0.839, -0.545, 0.545, 0.839, 10, 75.867)">
        <g id="Group_1817-2" data-name="Group 1817">
          <path id="Path_14235-3" data-name="Path 14235" d="M.011,149.819a5.586,5.586,0,0,1,8.48-5.13A78.706,78.706,0,0,0,90.544,10.356,5.587,5.587,0,0,1,96.369.821a89.875,89.875,0,0,1-93.7,153.4A5.575,5.575,0,0,1,.011,149.819Z" fill="url(#linear-gradient)"/>
        </g>
      </g>
    </g>
    <g id="Group_1820" data-name="Group 1820" transform="translate(0 0)" opacity="0.1" style="mix-blend-mode: hard-light;isolation: isolate">
      <path id="Path_14236" data-name="Path 14236" d="M353.209,259.913v-.193h0a3.5,3.5,0,0,1,3.257-3.582h0a3.556,3.556,0,0,1,3.77,3.319h0v.128h0a3.464,3.464,0,0,1-3.251,3.587h0a.425.425,0,0,1-.263.058h0A3.547,3.547,0,0,1,353.209,259.913Zm-18.015,2.869h0a3.473,3.473,0,0,1-3.122-3.517h0v-.391h0a3.522,3.522,0,0,1,3.9-3.126h0a3.482,3.482,0,0,1,3.122,3.581h0v.327h0a3.52,3.52,0,0,1-3.513,3.126h-.385Zm38.967-5.732a3.608,3.608,0,0,1-.134-.847h0a3.593,3.593,0,0,1,2.667-3.453h0a3.515,3.515,0,0,1,4.3,2.542h0a3.87,3.87,0,0,1,.128.847h0a3.61,3.61,0,0,1-2.6,3.447h0a4.754,4.754,0,0,1-.916.134h0A3.589,3.589,0,0,1,374.16,257.05Zm-60.3,1.239a3.462,3.462,0,0,1-2.539-3.324h0a2.708,2.708,0,0,1,.193-1.04h0a3.52,3.52,0,0,1,4.424-2.349h0a3.488,3.488,0,0,1,2.474,3.324h0a4.725,4.725,0,0,1-.134,1.04h0a3.58,3.58,0,0,1-3.379,2.542h0A2.7,2.7,0,0,1,313.857,258.289Zm80.4-7.952a2.982,2.982,0,0,1-.391-1.5h0a3.4,3.4,0,0,1,2.019-3.19h0a3.484,3.484,0,0,1,4.68,1.63h0a3.431,3.431,0,0,1,.391,1.56h0a3.675,3.675,0,0,1-2.013,3.2h0a4.221,4.221,0,0,1-1.5.321h0A3.4,3.4,0,0,1,394.259,250.337Zm-100.571-.391h0a3.629,3.629,0,0,1-1.885-3.126h0a3.176,3.176,0,0,1,.449-1.689h0A3.46,3.46,0,0,1,297,243.694h0a3.477,3.477,0,0,1,1.885,3.067h0a3.175,3.175,0,0,1-.449,1.689h0a3.481,3.481,0,0,1-3.122,1.887h0A3.682,3.682,0,0,1,293.688,249.945Zm118.983-9.962a3.576,3.576,0,0,1-.654-2.08h0a3.457,3.457,0,0,1,1.436-2.869h0a3.529,3.529,0,0,1,4.937.783h0a3.406,3.406,0,0,1,.654,2.086h0a3.643,3.643,0,0,1-1.43,2.863h0a3.6,3.6,0,0,1-2.083.654h0A3.455,3.455,0,0,1,412.672,239.984Zm-137.2-2.08a3.464,3.464,0,0,1-1.3-2.74h0a2.918,2.918,0,0,1,.782-2.214h0a3.506,3.506,0,0,1,4.943-.52v-.064a3.576,3.576,0,0,1,1.3,2.734h0a3.856,3.856,0,0,1-.782,2.279h0a3.455,3.455,0,0,1-2.731,1.3h0A3.558,3.558,0,0,1,275.474,237.9Zm153.392-11.527a3.77,3.77,0,0,1-1.109-2.612h0a3.6,3.6,0,0,1,.98-2.407h0a3.509,3.509,0,0,1,5.007-.129h0a3.547,3.547,0,0,1,1.109,2.606h0a3.3,3.3,0,0,1-.98,2.343h0a3.318,3.318,0,0,1-2.533,1.174h0A3.624,3.624,0,0,1,428.866,226.376Zm-169.074-3.652a3.261,3.261,0,0,1-.84-2.214h0a3.3,3.3,0,0,1,1.231-2.734h0a3.447,3.447,0,0,1,4.943.391h0a3.145,3.145,0,0,1,.852,2.214h0a3.37,3.37,0,0,1-1.243,2.734h0a3.271,3.271,0,0,1-2.27.847h0A3.453,3.453,0,0,1,259.793,222.725Zm182.543-12.76a3.469,3.469,0,0,1-1.693-3h0a3.535,3.535,0,0,1,.584-1.823h0a3.5,3.5,0,0,1,4.879-1.11h0a3.558,3.558,0,0,1,1.628,3h0a3.547,3.547,0,0,1-.52,1.823h0a3.541,3.541,0,0,1-2.994,1.694h0A3.362,3.362,0,0,1,442.336,209.964Zm-195.16-5.019h0a3.822,3.822,0,0,1-.455-1.887h0a3.526,3.526,0,0,1,1.757-3h0a3.518,3.518,0,0,1,4.815,1.3h0a4.336,4.336,0,0,1,.519,1.694h0a3.766,3.766,0,0,1-1.821,3.19h0a4.128,4.128,0,0,1-1.757.456h0A3.624,3.624,0,0,1,247.176,204.946ZM452.485,191.4a3.649,3.649,0,0,1-2.282-3.389h0a3.872,3.872,0,0,1,.263-1.174h0a3.522,3.522,0,0,1,4.552-2.016h0a3.59,3.59,0,0,1,2.276,3.19h0a3.445,3.445,0,0,1-.257,1.367h0a3.5,3.5,0,0,1-3.321,2.279h0A2.828,2.828,0,0,1,452.485,191.4ZM238.13,185.081a4.48,4.48,0,0,1-.193-1.233h0a3.427,3.427,0,0,1,2.34-3.26h0a3.5,3.5,0,0,1,4.488,2.15h0a2.07,2.07,0,0,1,.2,1.239h0a3.48,3.48,0,0,1-2.34,3.254h0a3.586,3.586,0,0,1-1.173.2h0A3.569,3.569,0,0,1,238.13,185.081Zm220.792-13.87a3.492,3.492,0,0,1-2.865-3.389h0a2.486,2.486,0,0,1,.07-.713h0a3.528,3.528,0,0,1,4.1-2.8h0a3.6,3.6,0,0,1,2.924,3.389h0c0,.263-.064.462-.064.719h0a3.537,3.537,0,0,1-3.449,2.869h0A2.477,2.477,0,0,1,458.922,171.21ZM232.93,163.854c0-.2-.064-.391-.064-.526h0a3.629,3.629,0,0,1,3.058-3.517h0a3.513,3.513,0,0,1,3.963,3h0a1.518,1.518,0,0,1,.07.52h0a3.511,3.511,0,0,1-2.994,3.517h-.519A3.508,3.508,0,0,1,232.93,163.854ZM458.011,146.66a3.5,3.5,0,0,1,3.513-3.517h0a3.559,3.559,0,0,1,3.578,3.517h0a3.572,3.572,0,0,1-3.578,3.582h0A3.555,3.555,0,0,1,458.011,146.66Zm-222.869-.911a3.564,3.564,0,0,1-3.385-3.517h0v-.2h0a3.5,3.5,0,0,1,3.642-3.383h0a3.614,3.614,0,0,1,3.449,3.517h0v.193h0a3.578,3.578,0,0,1-3.577,3.389h-.128Zm222.222-10.879h0v-.391h0a3.582,3.582,0,0,1,3.186-3.517h0a3.6,3.6,0,0,1,3.9,3.132h0v.386h0a3.577,3.577,0,0,1-3.186,3.517h-.385A3.623,3.623,0,0,1,457.363,134.869ZM237.29,124.645a3.54,3.54,0,0,1-2.731-3.517h0a2.678,2.678,0,0,1,.064-.713h0a3.6,3.6,0,0,1,4.225-2.676h0a3.627,3.627,0,0,1,2.8,3.582h0c-.058.2-.058.462-.128.719h0a3.543,3.543,0,0,1-3.443,2.74h0A3.273,3.273,0,0,1,237.29,124.645Zm216.035-9.9a3.007,3.007,0,0,1-.193-1.046h0a3.7,3.7,0,0,1,2.539-3.383h0a3.6,3.6,0,0,1,4.424,2.407h0a5.172,5.172,0,0,1,.128,1.046h0a3.475,3.475,0,0,1-2.469,3.319h0a3.306,3.306,0,0,1-1.045.2h0A3.541,3.541,0,0,1,453.325,114.747ZM243.336,104.324a3.514,3.514,0,0,1-2.142-3.254h0a3.54,3.54,0,0,1,.321-1.367h0a3.48,3.48,0,0,1,4.622-1.823h0a3.514,3.514,0,0,1,2.142,3.254h0a3.291,3.291,0,0,1-.321,1.367h0a3.521,3.521,0,0,1-3.251,2.15h0A3.44,3.44,0,0,1,243.336,104.324Zm202.251-8.53h-.064a4.188,4.188,0,0,1-.391-1.694h0a3.663,3.663,0,0,1,1.885-3.126h0a3.609,3.609,0,0,1,4.815,1.5h-.064a3.285,3.285,0,0,1,.455,1.689h0a3.788,3.788,0,0,1-1.885,3.126h0a3.72,3.72,0,0,1-1.628.391h0A3.482,3.482,0,0,1,445.586,95.794ZM253.029,85.5a3.534,3.534,0,0,1-1.564-2.933h0a3.68,3.68,0,0,1,.654-1.951h0a3.548,3.548,0,0,1,4.943-.911h0a3.548,3.548,0,0,1,1.5,2.927h0a3.617,3.617,0,0,1-.59,1.957h0a3.526,3.526,0,0,1-2.924,1.56h0A3.389,3.389,0,0,1,253.029,85.5ZM434.4,78.6a3.463,3.463,0,0,1-.782-2.284h0a3.428,3.428,0,0,1,1.366-2.734h0a3.582,3.582,0,0,1,4.943.584h0a3.422,3.422,0,0,1,.718,2.284h0a3.319,3.319,0,0,1-1.3,2.664h0a3.519,3.519,0,0,1-2.212.783h0A3.459,3.459,0,0,1,434.4,78.6ZM266.043,68.836a3.5,3.5,0,0,1-.98-2.477h0a3.568,3.568,0,0,1,1.039-2.542h0a3.442,3.442,0,0,1,4.949.064h0a3.323,3.323,0,0,1,1.039,2.477h0a3.323,3.323,0,0,1-1.039,2.477h0a3.316,3.316,0,0,1-2.474,1.04h0A3.537,3.537,0,0,1,266.043,68.836Zm154.174-5.083h0a3.674,3.674,0,0,1-1.237-2.606h0a3.5,3.5,0,0,1,.91-2.413h0a3.5,3.5,0,0,1,4.943-.321h0a3.675,3.675,0,0,1,1.237,2.606h0a3.779,3.779,0,0,1-.846,2.407h0a3.6,3.6,0,0,1-2.667,1.174h0A3.463,3.463,0,0,1,420.217,63.753ZM281.981,54.831a3.617,3.617,0,0,1-.589-1.957h0a3.475,3.475,0,0,1,1.494-2.927h0a3.608,3.608,0,0,1,4.949.911h0a3.8,3.8,0,0,1,.584,2.016h0a3.543,3.543,0,0,1-1.558,2.933h0a3.6,3.6,0,0,1-1.955.584h0A3.526,3.526,0,0,1,281.981,54.831ZM403.562,51.77a3.384,3.384,0,0,1-1.757-3h0a3.768,3.768,0,0,1,.455-1.823h0a3.518,3.518,0,0,1,4.879-1.239h-.064a3.448,3.448,0,0,1,1.757,3h0a3.169,3.169,0,0,1-.455,1.823h0a3.545,3.545,0,0,1-3.058,1.759h0A3.471,3.471,0,0,1,403.562,51.77ZM300.2,44.081a5.014,5.014,0,0,1-.327-1.367h0a3.447,3.447,0,0,1,2.148-3.254h0a3.524,3.524,0,0,1,4.68,1.823h0a3.351,3.351,0,0,1,.263,1.367h0a3.527,3.527,0,0,1-2.148,3.26h0a3.529,3.529,0,0,1-1.366.321h0A3.619,3.619,0,0,1,300.2,44.081Zm84.761-.911a3.562,3.562,0,0,1-2.34-3.319h0a3.749,3.749,0,0,1,.193-1.174h0a3.478,3.478,0,0,1,4.488-2.15h0a3.437,3.437,0,0,1,2.346,3.26h0a2.038,2.038,0,0,1-.2,1.239h0a3.559,3.559,0,0,1-3.315,2.343h0A3.748,3.748,0,0,1,384.957,43.169ZM320.1,36.918a2.691,2.691,0,0,1-.07-.713h0a3.392,3.392,0,0,1,2.737-3.517h0a3.544,3.544,0,0,1,4.225,2.67h0a2.455,2.455,0,0,1,.064.713h0a3.54,3.54,0,0,1-2.731,3.517h0a2.955,2.955,0,0,1-.782.07h0A3.543,3.543,0,0,1,320.1,36.918Zm45.013,1.239a3.494,3.494,0,0,1-2.994-3.453h0v-.52h0a3.587,3.587,0,0,1,4.038-3h0a3.51,3.51,0,0,1,2.988,3.517h0a1.664,1.664,0,0,1-.064.526h0a3.491,3.491,0,0,1-3.449,2.991h0A1.294,1.294,0,0,1,365.114,38.156Zm-24.132-4.627V33.4h0a3.556,3.556,0,0,1,3.379-3.511h0a3.609,3.609,0,0,1,3.712,3.447h0v.193h0a3.617,3.617,0,0,1-3.449,3.459H344.5A3.529,3.529,0,0,1,340.983,33.529Z" transform="translate(-231.757 -29.887)" fill="url(#linear-gradient-3)" style="mix-blend-mode: overlay;isolation: isolate"/>
    </g>
  </g>
</svg>
