<svg xmlns="http://www.w3.org/2000/svg" xmlns:xlink="http://www.w3.org/1999/xlink" width="231.699" height="238.079" viewBox="0 0 231.699 238.079">
  <defs>
    <linearGradient id="linear-gradient" x1="0.5" x2="0.739" y2="0.819" gradientUnits="objectBoundingBox">
      <stop offset="0" stop-color="#833286"/>
      <stop offset="1" stop-color="#ff60ef"/>
    </linearGradient>
    <linearGradient id="linear-gradient-2" x1="-0.692" y1="-0.574" x2="1" y2="1.526" gradientUnits="objectBoundingBox">
      <stop offset="0" stop-color="#7ffff1"/>
      <stop offset="0" stop-color="#4effec"/>
      <stop offset="0" stop-color="#77e3f1"/>
      <stop offset="0" stop-color="#00ffe3"/>
      <stop offset="1" stop-color="#0f8"/>
    </linearGradient>
    <linearGradient id="linear-gradient-5" x1="0.5" x2="1" y2="1.513" gradientUnits="objectBoundingBox">
      <stop offset="0" stop-color="#b1c1fe"/>
      <stop offset="1" stop-color="#092f82"/>
    </linearGradient>
  </defs>
  <g id="Group_2013" data-name="Group 2013" transform="translate(3 5)" style="mix-blend-mode: normal;isolation: isolate">
    <g id="Group_1767" data-name="Group 1767">
      <g id="Group_1766" data-name="Group 1766" transform="translate(38.427 34.531)">
        <g id="Group_1765" data-name="Group 1765">
          <path id="Path_14200" data-name="Path 14200" d="M752.954,108.871c0,41.738-32.885,75.562-73.466,75.562s-73.466-33.824-73.466-75.562A77.013,77.013,0,0,1,612,78.979l67.555,30.8h.117c2.3-.1,45.331-1.333,73.257-2.121C752.954,108.061,752.954,108.465,752.954,108.871Z" transform="translate(-606.021 -23.416)" fill="url(#linear-gradient)"/>
          <g id="Group_1764" data-name="Group 1764" transform="translate(73.544)">
            <path id="Path_14201" data-name="Path 14201" d="M640.212,92.859v.049l-.093-.049Z" transform="translate(-640.103 -6.499)" fill="#f4f4f4" style="mix-blend-mode: overlay;isolation: isolate"/>
            <g id="Group_1763" data-name="Group 1763" transform="translate(0 86.37)">
              <line id="Line_37" data-name="Line 37" x1="69.469" y1="36.682" fill="#ff3b4d"/>
            </g>
            <path id="Path_14202" data-name="Path 14202" d="M724.061,137.865c-3.152.1-6.722.191-10.592.311-28.692.81-73.35,2.1-73.35,2.121V53.938c1.437,0,2.873.024,4.287.1.418.024.811.071,1.206.1,1.02.071,2.039.142,3.036.237.487.049.951.12,1.415.191.925.1,1.853.215,2.757.357.464.071.928.169,1.392.24.925.166,1.829.333,2.733.5.44.1.882.215,1.322.311.9.215,1.829.428,2.733.668.395.1.79.213,1.206.333.928.262,1.853.526,2.781.81.371.12.718.264,1.09.382.949.311,1.877.621,2.8.978.347.12.695.262,1.042.4.928.359,1.855.739,2.759,1.12.324.144.647.311,1,.453.9.406,1.808.812,2.712,1.265l.973.5c.88.455,1.76.907,2.619,1.382l.973.572c.856.477,1.715.978,2.55,1.5.3.191.626.406.949.6.811.524,1.622,1.072,2.434,1.62.324.215.626.453.949.692.79.548,1.553,1.1,2.319,1.691.324.24.649.5.973.763.742.572,1.461,1.145,2.179,1.764.347.286.671.572,1.018.883.673.572,1.346,1.167,1.993,1.786.371.311.718.668,1.068,1,.6.595,1.228,1.192,1.829,1.786.371.382.718.763,1.089,1.145l1.67,1.788c.369.453.74.881,1.135,1.334.488.572.973,1.145,1.461,1.742q.589.712,1.182,1.5c.44.548.856,1.1,1.275,1.669.416.548.833,1.12,1.228,1.693.371.524.718,1.049,1.089,1.573.416.643.835,1.287,1.251,1.955.3.477.6.954.9,1.431.44.739.857,1.453,1.275,2.192.231.428.485.859.719,1.287.44.81.857,1.644,1.275,2.478.185.357.371.739.555,1.1.442.907.859,1.837,1.275,2.767.14.286.278.595.395.905.44,1,.856,2.026,1.251,3.051.093.237.162.453.255.668.419,1.12.811,2.241,1.182,3.384l.14.43c.393,1.238.787,2.478,1.111,3.717a.451.451,0,0,1,.048.169A88.144,88.144,0,0,1,724.061,137.865Z" transform="translate(-640.103 -53.937)" fill="url(#linear-gradient-2)"/>
            <path id="Path_14658" data-name="Path 14658" d="M724.061,137.865c-3.152.1-6.722.191-10.592.311-28.692.81-73.35,2.1-73.35,2.121V53.938c1.437,0,2.873.024,4.287.1.418.024.811.071,1.206.1,1.02.071,2.039.142,3.036.237.487.049.951.12,1.415.191.925.1,1.853.215,2.757.357.464.071.928.169,1.392.24.925.166,1.829.333,2.733.5.44.1.882.215,1.322.311.9.215,1.829.428,2.733.668.395.1.79.213,1.206.333.928.262,1.853.526,2.781.81.371.12.718.264,1.09.382.949.311,1.877.621,2.8.978.347.12.695.262,1.042.4.928.359,1.855.739,2.759,1.12.324.144.647.311,1,.453.9.406,1.808.812,2.712,1.265l.973.5c.88.455,1.76.907,2.619,1.382l.973.572c.856.477,1.715.978,2.55,1.5.3.191.626.406.949.6.811.524,1.622,1.072,2.434,1.62.324.215.626.453.949.692.79.548,1.553,1.1,2.319,1.691.324.24.649.5.973.763.742.572,1.461,1.145,2.179,1.764.347.286.671.572,1.018.883.673.572,1.346,1.167,1.993,1.786.371.311.718.668,1.068,1,.6.595,1.228,1.192,1.829,1.786.371.382.718.763,1.089,1.145l1.67,1.788c.369.453.74.881,1.135,1.334.488.572.973,1.145,1.461,1.742q.589.712,1.182,1.5c.44.548.856,1.1,1.275,1.669.416.548.833,1.12,1.228,1.693.371.524.718,1.049,1.089,1.573.416.643.835,1.287,1.251,1.955.3.477.6.954.9,1.431.44.739.857,1.453,1.275,2.192.231.428.485.859.719,1.287.44.81.857,1.644,1.275,2.478.185.357.371.739.555,1.1.442.907.859,1.837,1.275,2.767.14.286.278.595.395.905.44,1,.856,2.026,1.251,3.051.093.237.162.453.255.668.419,1.12.811,2.241,1.182,3.384l.14.43c.393,1.238.787,2.478,1.111,3.717a.451.451,0,0,1,.048.169A88.144,88.144,0,0,1,724.061,137.865Z" transform="translate(-639.405 -53.937)" fill="url(#linear-gradient-2)"/>
          </g>
          <path id="Path_14660" data-name="Path 14660" d="M752.954,108.871c0,41.738-32.885,75.562-73.466,75.562s-73.466-33.824-73.466-75.562A77.013,77.013,0,0,1,612,78.979l67.555,30.8h.117c2.3-.1,45.331-1.333,73.257-2.121C752.954,108.061,752.954,108.465,752.954,108.871Z" transform="translate(-609.943 -17.452)" fill="url(#linear-gradient)"/>
          <path id="Path_14203" data-name="Path 14203" d="M718.417,93.564a82.244,82.244,0,0,1-8.836,37.238L640.112,94.121c0-.044,52.99-1.544,78.277-2.288C718.417,92.405,718.417,92.991,718.417,93.564Z" transform="translate(-566.568 -7.75)" fill="url(#linear-gradient-5)"/>
          <path id="Path_14659" data-name="Path 14659" d="M718.417,93.564a82.244,82.244,0,0,1-8.836,37.238L640.112,94.121c0-.044,52.99-1.544,78.277-2.288C718.417,92.405,718.417,92.991,718.417,93.564Z" transform="translate(-560.218 -3.028)" fill="url(#linear-gradient-5)"/>
        </g>
      </g>
      <ellipse id="Ellipse_120" data-name="Ellipse 120" cx="112.85" cy="116.04" rx="112.85" ry="116.04" transform="translate(0 -2)" fill="none" stroke="#4c7ff0" stroke-linecap="round" stroke-linejoin="round" stroke-width="6" stroke-dasharray="0 19" opacity="0.2"/>
      <ellipse id="Ellipse_121" data-name="Ellipse 121" cx="89.872" cy="92.435" rx="89.872" ry="92.435" transform="translate(21.978 22.605)" fill="none" stroke="#4c7ff0" stroke-width="0.438"/>
    </g>
  </g>
</svg>
