<svg id="Group_6122" data-name="Group 6122" xmlns="http://www.w3.org/2000/svg" width="228.869" height="536" viewBox="0 0 228.869 536">
  <g id="Group_1850" data-name="Group 1850">
    <path id="Path_14473" data-name="Path 14473" d="M1821.4,1664.173l-4.67,4.362c15.147,20.6,28.763,69.313,28.763,69.313l11.924-6.223C1855.124,1716.677,1837.669,1686.954,1821.4,1664.173Z" transform="translate(-1648.518 -1380.583)" fill="#1e1722"/>
    <path id="Path_14474" data-name="Path 14474" d="M1486.132,1800.454c-16.045,33.373-33.962,17.1-33.962,17.1l.717,20.364c15.506,8.328,27.792-10.17,41.85-42.024Z" transform="translate(-1421.466 -1462.621)" fill="#1e1722"/>
    <path id="Path_14475" data-name="Path 14475" d="M1372.622,1279.959c4.1-21.729,50-94.2,75.434-99.777s9.071,69.415.468,83.005-46.164,34.973-60.822,37.718C1379.274,1302.484,1370.874,1289.221,1372.622,1279.959Z" transform="translate(-1371.778 -1078.964)" fill="#fca66d"/>
    <path id="Path_14476" data-name="Path 14476" d="M1449.744,1183.869c-2.626.576-23.2,37.945-35.215,57-13.481,21.389-31.86,46-37.2,42.111-3.432-2.5,4.384-20.55,9.485-32.611-7.564,13.338-12.933,25.18-14.2,31.879-1.749,9.263,6.651,22.526,15.08,20.947,14.658-2.745,52.219-24.127,60.822-37.718S1475.181,1178.289,1449.744,1183.869Z" transform="translate(-1371.778 -1081.257)" fill="#f57e53"/>
    <path id="Path_14477" data-name="Path 14477" d="M1521.175,1308.426c-1.786-13.52-4.351-49.143-1.945-84.909.131-1.951-6.233-7.283-6.093-9.226,2.819-39.219,17.33-73.461,21.751-75.93,8.654-4.836,54.249-22.754,64.363-23.586s48.25-1.343,55.742,8.316c4.339,5.6-16.249,57.739-24.309,107.368-5.854,36.049-5.47,74.74-5.47,74.74Z" transform="translate(-1459.436 -1038.156)" fill="#ffd9c4"/>
    <path id="Path_14478" data-name="Path 14478" d="M1650.449,1144.648c-.875-1.128-5.389-8.1-7.008-8.964-26.532-8.037-47.134,67.068-47.134,67.068s-79.673,20.028-81.874,12.985c-1.009-3.228-2.812-10.124-1.069-23.784-2.584,10.655-7.933,23.117-8.835,35.669-.14,1.943,6.294,7.953,6.162,9.9-2.406,35.765,3.336,70.283,5.122,83.8l4.893-.152c1.582-23.6,17.977-59.809,31.949-62.375,21.091-3.874,50.753,12.768,58.353,59.574l8.845-.274s-.385-38.691,5.47-74.74C1633.383,1193.733,1654.788,1150.243,1650.449,1144.648Z" transform="translate(-1454.075 -1051.06)" fill="#eabaa3"/>
    <path id="Path_14479" data-name="Path 14479" d="M1855.519,1238.722c4.746-23.8-14.554-103.525-39.012-116.385-23.609-12.414-36.307,50.987-33.29,66.855,3.069,16.141,31.289,56.474,46.22,65.081C1838.168,1259.307,1853.474,1248.978,1855.519,1238.722Z" transform="translate(-1627.372 -1042.126)" fill="#fca66d"/>
    <path id="Path_14480" data-name="Path 14480" d="M1830.638,1180.3a89.107,89.107,0,0,1,4.594,14.487c5.914,26.076,9.51,60.754-4.179,63.859s-39.478-26.54-45.392-52.616a89.694,89.694,0,0,1-2.039-13.884c-3.549,13.72-7.043,28.651-5.831,35.026,3.069,16.141,33.456,55.59,48.387,64.2,8.732,5.033,24.037-5.3,26.083-15.552C1855.8,1258.09,1845.984,1209.338,1830.638,1180.3Z" transform="translate(-1624.114 -1079.221)" fill="#f57e53"/>
    <path id="Path_14481" data-name="Path 14481" d="M1631.355,1561.742c-46.47-4.2-118.115,14.673-118.115,14.673s-1.872,59.521,1.966,124.6c.214,3.63,3.288,3.574,3.823,10.825.521,7.078-.4,14.778-.019,21.821.2,3.707-4.673,12.833-4.749,16.506-.153,7.392,9.351,5.494,9.532,8.851.167,3.1-3.837,4.077-3.675,7.109.245,4.582-9.742,4.35-9.511,8.724.347,6.6,11.169,18.171,11.474,24.154.852,16.688,1.551,29.86,1.925,39.261l2.488-.161s27.569-166.147,31.661-171.344c1-1.267,8.979-7.8,15.928-7.755,5.907.041,22.237,8.841,22.888,11.278,1.4,5.239,47.377,161.4,47.377,161.4l4.326-1.1c-.791-5.078-6.682-55.528-8.549-110.19-.108-3.167,5.387-6.012,5.279-9.209-.125-3.71-8.5-4.51-8.62-8.24-.23-6.887,4.3-16.835,4.2-23.71-.048-3.237-5.6-3.94-5.626-7.149C1634.936,1614.611,1631.355,1561.742,1631.355,1561.742Z" transform="translate(-1457.859 -1316.408)" fill="#8f0d19"/>
    <g id="Group_1845" data-name="Group 1845" transform="translate(54.953 248.665)" opacity="0.6" style="mix-blend-mode: multiply;isolation: isolate">
      <path id="Path_14482" data-name="Path 14482" d="M1532.243,1592.058c-4.329,8.452-10.664,27.359-15.784,48.736.061,10.313.226,21.886.557,34.219,2.6-29.067,9.821-61.436,24.877-85.7Z" transform="translate(-1516.459 -1582.628)" fill="#712225"/>
      <path id="Path_14483" data-name="Path 14483" d="M1712.831,1571.582c6.714,31.392,15.576,62.718,52.586,123.563a38.6,38.6,0,0,0,1.517-9.39c-.048-3.237-5.6-3.941-5.626-7.149q-.053-7.269-.172-14.4c-14.548-23.077-26.184-48.835-37.192-91.1Z" transform="translate(-1638.761 -1571.582)" fill="#712225"/>
    </g>
    <path id="Path_14484" data-name="Path 14484" d="M1482.085,1592.246c-12.193,11.419-45.238,61.994-44.349,94.69l6.285,23.888c-3-21.437,13.466-92.054,49.28-119.811Z" transform="translate(-1412.466 -1335.019)" fill="#403148"/>
    <g id="Group_1846" data-name="Group 1846" transform="translate(25.253 255.995)">
      <path id="Path_14485" data-name="Path 14485" d="M1446.828,1798.3a65.947,65.947,0,0,1-5.2-16.58c-2.584,8.465-4.091,16.675-3.892,23.99l6.285,23.889C1443.093,1822.968,1444.033,1811.624,1446.828,1798.3Z" transform="translate(-1437.719 -1709.789)" fill="#322637"/>
      <path id="Path_14486" data-name="Path 14486" d="M1538.682,1592.246a91.947,91.947,0,0,0-10.089,12.066,34.72,34.72,0,0,1,3.558,5.742,89.62,89.62,0,0,1,17.747-19.041Z" transform="translate(-1494.316 -1591.014)" fill="#322637"/>
    </g>
    <path id="Path_14487" data-name="Path 14487" d="M1712.256,1569.589c9.095,29.577,20.8,58.748,70.373,115.924l9.84-12.767c-28.883-27.6-48.537-49.456-68.273-103.3Z" transform="translate(-1583.45 -1321.584)" fill="#403148"/>
    <g id="Group_1847" data-name="Group 1847" transform="translate(128.805 247.858)">
      <path id="Path_14488" data-name="Path 14488" d="M1728.92,1581.71c-1.577-3.906-3.151-7.974-4.724-12.268l-11.939.147c1.816,5.907,3.743,11.8,6.049,17.9A29.881,29.881,0,0,1,1728.92,1581.71Z" transform="translate(-1712.256 -1569.442)" fill="#322637"/>
      <path id="Path_14489" data-name="Path 14489" d="M1857.669,1783.522a64.262,64.262,0,0,1-5.088,14.435c5.233,6.536,11.014,13.472,17.444,20.888l9.84-12.767C1871.816,1798.385,1864.485,1791.138,1857.669,1783.522Z" transform="translate(-1799.652 -1702.773)" fill="#322637"/>
    </g>
    <path id="Path_14490" data-name="Path 14490" d="M1700.626,1287.53c3.679,1.275,31.9,27.189,33.566,31.353,1.669,4.185-2.352,22.234-7.987,29.234s-52.406,18.926-62.212,11.739c-9.657-7.078-75.878-50.633-75.878-50.633l7.957-24.524S1690.009,1283.85,1700.626,1287.53Z" transform="translate(-1506.133 -1144.19)" fill="#fca66d"/>
    <path id="Path_14491" data-name="Path 14491" d="M1669.831,1333.357c-15.406-12.031-6.013-47.917,10.126-49.856l-22.744-.912-16.14,26.558L1649,1322.94l17.754,12.325Z" transform="translate(-1539.116 -1142.929)" fill="#f57e53"/>
    <path id="Path_14492" data-name="Path 14492" d="M1734.192,1341.314c-.68-1.705-5.818-7.059-11.9-12.874-.585,7.62-2.566,17.231-6.086,21.6-5.637,7-48.667,19.2-63.661,12.876-7.571-3.193-40.469-27.078-60.857-42.288l-3.577,11.023s66.781,49.849,76.438,56.927c9.807,7.188,58.344-8.645,63.982-15.649S1735.861,1345.5,1734.192,1341.314Z" transform="translate(-1506.133 -1166.622)" fill="#f57e53"/>
    <path id="Path_14493" data-name="Path 14493" d="M1634.792,1091.392l11.5-20.815,49.756-14.847,2.405,23.65S1630.743,1126.333,1634.792,1091.392Z" transform="translate(-1535.096 -1001.638)" fill="#fca66d"/>
    <path id="Path_14494" data-name="Path 14494" d="M1625.7,1601.625c-.219,14.582,3.621,58.9,4.906,60.487s13.805.717,13.805.717l-6.252-62.225Z" transform="translate(-1529.537 -1340.991)" fill="#712225"/>
    <path id="Path_14495" data-name="Path 14495" d="M1634.676,1582.295l-19.343,1.535.08,10.494,20.343-1.905Z" transform="translate(-1523.086 -1329.589)" fill="#ffce9d"/>
    <path id="Path_14496" data-name="Path 14496" d="M1562.706,1584.991l-15.491,1.706.562,2.937,14.948-1.359Z" transform="translate(-1480.661 -1331.268)" fill="#ffce9d"/>
    <path id="Path_14497" data-name="Path 14497" d="M1721.949,1560.828,1702.5,1562.2l.833,3.8,18.746-.727Z" transform="translate(-1577.377 -1316.219)" fill="#ffce9d"/>
    <g id="Group_1848" data-name="Group 1848" transform="translate(56.78 331.221)" opacity="0.6" style="mix-blend-mode: multiply;isolation: isolate">
      <path id="Path_14498" data-name="Path 14498" d="M1521.3,2068.68a5.808,5.808,0,0,0,3.375,3.181,3.387,3.387,0,0,0,.037-.7C1524.64,2069.823,1523.143,2069.263,1521.3,2068.68Z" transform="translate(-1521.302 -1963.736)" fill="#712225"/>
      <path id="Path_14499" data-name="Path 14499" d="M1619.964,1802.568c-.718-2.618-18.728-12.071-25.242-12.115-7.664-.053-16.466,6.97-17.566,8.33-3.736,4.621-25.211,127.7-32.5,169.96.227,4.65.416,8.777.559,12.351l2.487-.161s27.57-166.147,31.662-171.343c1-1.267,8.979-7.8,15.928-7.755,5.907.042,22.237,8.841,22.888,11.278,1.4,5.239,47.376,161.4,47.376,161.4l4.326-1.1c-.165-1.059-.554-4.118-1.081-8.755C1657.41,1926.958,1621.263,1807.305,1619.964,1802.568Z" transform="translate(-1535.848 -1790.453)" fill="#712225"/>
    </g>
    <path id="Path_14500" data-name="Path 14500" d="M1860.8,2284.367h31.5s2.059-9.533-17.75-7.109c-6.666.815-10.485-3.716-10.152-22.563l-9.421,4.008Z" transform="translate(-1672.336 -1748.367)" fill="#403148"/>
    <path id="Path_14501" data-name="Path 14501" d="M1506.468,2285.094h-31.5s-3.9-9.391,16.379-7c6.823.8,9.768-3.661,5.8-22.228l10.194,3.948Z" transform="translate(-1435.48 -1749.094)" fill="#403148"/>
    <path id="Path_14502" data-name="Path 14502" d="M1524.488,1298.17c-.221-6.586-.075-16.271,8.729-18.618s19.065-3.213,22.009.147-8.07,10.564-8.07,10.564Z" transform="translate(-1466.476 -1139.745)" fill="#fca66d"/>
    <path id="Path_14503" data-name="Path 14503" d="M1381.26,1326.323c-2.2,2.833-8.691,18.245-7.705,21.968s23.057,26.835,31.008,28.914,29.723-5.475,34.024-15.106,60.552-86.558,60.552-86.558l-28.521-2.709S1387.677,1318.071,1381.26,1326.323Z" transform="translate(-1372.441 -1136.852)" fill="#fca66d"/>
    <path id="Path_14504" data-name="Path 14504" d="M1548.9,1285.6c-3.558.888-6.681,3.255-6.579,5.995s.623,15.41,3.507,16,7.392-1.238,6.941-4.066-2.509-9.3-1.039-10.636C1555.233,1289.713,1558.711,1283.148,1548.9,1285.6Z" transform="translate(-1477.614 -1144.468)" fill="#f57e53"/>
    <path id="Path_14505" data-name="Path 14505" d="M1525.473,1292.218c-3.659.623-7.469,4.008-7.673,6.757s-1.093,15.46,1.727,16.261,7.534-.687,7.4-3.55-1.475-9.493.144-10.715C1530.927,1298.058,1535.56,1290.5,1525.473,1292.218Z" transform="translate(-1462.158 -1148.769)" fill="#f57e53"/>
    <path id="Path_14506" data-name="Path 14506" d="M1577.731,1286.865c-3.7.039-7.115.839-7.14,3.316s-.084,13.937,2.788,14.659,7.489-.62,7.167-3.2-2.094-8.558-.554-9.66C1583.658,1289.355,1586.178,1286.776,1577.731,1286.865Z" transform="translate(-1495.216 -1145.59)" fill="#f57e53"/>
    <path id="Path_14507" data-name="Path 14507" d="M1399.663,1360.117c-5.539-.566-19.3-15.316-26.7-23.463-1.993,5.034-2.61,12.244-1.916,15.648,1.034,5.078,22.862,28.148,30.813,30.226s31.176-6.949,37.855-15.113c7.923-9.684,57.756-88.127,57.756-88.127l-4.632-.44C1473.391,1299.96,1427.972,1363.013,1399.663,1360.117Z" transform="translate(-1370.768 -1140.599)" fill="#f57e53"/>
    <path id="Path_14508" data-name="Path 14508" d="M1605.179,1264.987c2.054-4.989,11.778-12.253,16.914-12.693s26.558-1.908,30.959,1.614,4.55,10.3,4.55,10.3-15.407.116-21.13,8.626S1605.179,1264.987,1605.179,1264.987Z" transform="translate(-1516.761 -1123.637)" fill="#fca66d"/>
    <path id="Path_14509" data-name="Path 14509" d="M1544.121,1280.673c-3.635.854-7.349,4.349-7.483,6.982s-.7,14.808,2.133,15.372,7.5-1.189,7.29-3.907-1.71-8.941-.126-10.22C1549.708,1285.851,1554.138,1278.321,1544.121,1280.673Z" transform="translate(-1473.988 -1141.456)" fill="#fca66d"/>
    <path id="Path_14510" data-name="Path 14510" d="M1518.553,1290.166c-3.713.6-7.813,3.852-8.253,6.493s-2.421,14.856.33,15.627,7.593-.661,7.7-3.412-.659-9.122,1.065-10.3C1523.5,1295.779,1528.787,1288.515,1518.553,1290.166Z" transform="translate(-1456.984 -1147.497)" fill="#fca66d"/>
    <path id="Path_14511" data-name="Path 14511" d="M1572.829,1277.954c-3.706.038-7.518,3.472-7.755,5.853s-1.281,13.392,1.529,14.087,7.542-.595,7.441-3.075-1.359-8.224.276-9.283C1578.212,1283.014,1581.284,1277.868,1572.829,1277.954Z" transform="translate(-1491.543 -1140.041)" fill="#fca66d"/>
    <path id="Path_14512" data-name="Path 14512" d="M1630.767,1113.054c15.441,4.411,60.291-25.7,84.955-31.086-.067-.036-.132-.083-.2-.118a12.289,12.289,0,0,0-7.2-1.525,123.55,123.55,0,0,0-18.7-2.2l-2.277-22.391-49.756,14.847-11.5,20.815h0q-2.489.976-4.872,1.935C1619.391,1102.314,1621.727,1110.471,1630.767,1113.054Z" transform="translate(-1526.391 -1001.638)" fill="#712225" opacity="0.6" style="mix-blend-mode: multiply;isolation: isolate"/>
    <path id="Path_14513" data-name="Path 14513" d="M1642.683,1001.967c-11.475-1.319-21.808-6.75-21.538-11.731s11.037-52.463,18.145-60.345,34.773-33.6,58.165-2.823c7.656,10.074-7.99,31.372-5.912,43.492C1692.828,978.059,1655.057,1003.389,1642.683,1001.967Z" transform="translate(-1526.702 -912.323)" fill="#fca66d"/>
    <path id="Path_14514" data-name="Path 14514" d="M1743.414,1002.264c.073-2.33-1.329-4.265-3.131-4.321s-3.322,1.787-3.4,4.116,1.329,4.265,3.131,4.321S1743.341,1004.593,1743.414,1002.264Z" transform="translate(-1598.789 -965.647)" fill="#3f2521"/>
    <path id="Path_14515" data-name="Path 14515" d="M1681.076,997.5c.073-2.33-1.329-4.265-3.131-4.321s-3.322,1.787-3.395,4.116,1.329,4.264,3.131,4.321S1681,999.828,1681.076,997.5Z" transform="translate(-1559.965 -962.68)" fill="#3f2521"/>
    <path id="Path_14516" data-name="Path 14516" d="M1701.889,929.531c-5.476-7.206-11.187-11.286-16.812-13.253a40.906,40.906,0,0,1,11.4,10.866c-17.137,10.075-7.769,31.367-5.737,43.489,1.257,7.5-35.534,32.81-47.593,31.381a41.6,41.6,0,0,1-14.889-4.56c3.767,3.272,11.044,6.078,18.858,6.976,12.374,1.422,52-22.625,50.719-30.123C1695.757,962.186,1709.545,939.6,1701.889,929.531Z" transform="translate(-1531.136 -914.786)" fill="#f57e53"/>
    <path id="Path_14517" data-name="Path 14517" d="M1782.013,1043.391c3.931-8.607,14.438-11.21,15.684-5.337,1.94,9.153-7.406,14.947-13.524,15.888S1780.022,1047.75,1782.013,1043.391Z" transform="translate(-1625.675 -988.659)" fill="#fca66d"/>
    <path id="Path_14518" data-name="Path 14518" d="M1786.13,1050.82c2.65-5.8,9.736-7.558,10.575-3.6,1.308,6.171-4.994,10.078-9.119,10.713S1784.787,1053.76,1786.13,1050.82Z" transform="translate(-1628.636 -995.011)" fill="#e36445"/>
    <path id="Path_14519" data-name="Path 14519" d="M1781.985,1059.4c1.97-4.046,7.292-5.237,7.94-2.463,1.01,4.323-3.715,7.023-6.815,7.446S1780.987,1061.445,1781.985,1059.4Z" transform="translate(-1626.272 -1001.449)" fill="#fca66d"/>
    <path id="Path_14520" data-name="Path 14520" d="M1664.492,1028.781c-.043-1.772,6.979-14.411,12.037-22.7v-2.346c-4.676,7.252-14.175,24.177-14.1,26.221.093,2.516,11.744,1.776,12.632,1.923.113.019.26-.4.429-1.142C1672.141,1030.761,1664.543,1030.828,1664.492,1028.781Z" transform="translate(-1552.417 -969.257)" fill="#e36445"/>
    <path id="Path_14521" data-name="Path 14521" d="M1669.412,984.5c-4.41.434-13.464-3.283-14.794-4.177s-.117-9.446,2.605-10.223,14,8.1,14.525,9.389S1670.211,984.417,1669.412,984.5Z" transform="translate(-1547.216 -948.274)" fill="#c4331c"/>
    <path id="Path_14522" data-name="Path 14522" d="M1706.674,988.386c5.264,1.668,17.632.719,19.566.25s3.339-8.93.261-10.443-19.912,3.7-21,4.773S1705.72,988.084,1706.674,988.386Z" transform="translate(-1578.987 -953.178)" fill="#c4331c"/>
    <g id="Group_1849" data-name="Group 1849" transform="translate(109.576 65.033)">
      <path id="Path_14523" data-name="Path 14523" d="M1676.081,1092.611c-1.394-7.865-12.254-7.594-14.364-4.751l-.442-.328c2.974-4.009,14.858-4.719,16.54,4.773Z" transform="translate(-1661.275 -1084.738)" fill="#e36445"/>
      <path id="Path_14524" data-name="Path 14524" d="M1678.117,1095.891c.117-.566-1.134-2.257-2.768-2.6a2.9,2.9,0,0,0-3.15,1.369c-.117.566,1.075-.387,2.709-.048S1678,1096.456,1678.117,1095.891Z" transform="translate(-1668.073 -1090.028)" fill="#e36445"/>
    </g>
  </g>
  <g id="Group_1851" data-name="Group 1851" transform="translate(97.374 35.475)">
    <path id="Path_14525" data-name="Path 14525" d="M1693.6,1019.134c-6.218-2.949-11.013-3.391-17.708-1.558h0l.95,2.464c.107.279.23.549.359.817,5.691-1.408,9.222-1.093,14.574,1.3Z" transform="translate(-1658.175 -1012.67)" fill="#232323"/>
    <path id="Path_14526" data-name="Path 14526" d="M1644.5,1020.29l-13.166-1.158a2.636,2.636,0,0,1-2.4-2.857l.659-7.5a2.636,2.636,0,0,1,2.857-2.4l16.411,1.443a2.636,2.636,0,0,1,2.4,2.857l-.374,4.25A5.894,5.894,0,0,1,1644.5,1020.29Z" transform="translate(-1628.924 -1006.375)" fill="#232323"/>
    <path id="Path_14527" data-name="Path 14527" d="M1715.386,1026.487l13.166,1.158a2.636,2.636,0,0,0,2.857-2.395l.659-7.5a2.636,2.636,0,0,0-2.4-2.857l-16.411-1.444a2.637,2.637,0,0,0-2.857,2.4l-.374,4.25A5.893,5.893,0,0,0,1715.386,1026.487Z" transform="translate(-1679.424 -1010.777)" fill="#232323"/>
  </g>
  <path id="Path_14528" data-name="Path 14528" d="M1700.617,967.505l-28.843-4.212s8.114-.057,14.386.623S1700.617,967.505,1700.617,967.505Z" transform="translate(-1558.238 -944.067)" fill="#f57e53"/>
  <path id="Path_14529" data-name="Path 14529" d="M1708.675,957.512l-23.964-3.5s6.741-.048,11.953.517A65.128,65.128,0,0,1,1708.675,957.512Z" transform="translate(-1566.295 -938.287)" fill="#f57e53"/>
</svg>
