<svg xmlns="http://www.w3.org/2000/svg" xmlns:xlink="http://www.w3.org/1999/xlink" width="289.791" height="541.33" viewBox="0 0 289.791 541.33">
  <defs>
    <linearGradient id="linear-gradient" x1="0.5" x2="0.5" y2="1" gradientUnits="objectBoundingBox">
      <stop offset="0" stop-color="#d07143"/>
      <stop offset="0.147" stop-color="#d97e4f"/>
      <stop offset="0.443" stop-color="#e89362"/>
      <stop offset="0.731" stop-color="#f0a06e"/>
      <stop offset="1" stop-color="#f4a572"/>
    </linearGradient>
  </defs>
  <g id="Group_6126" data-name="Group 6126" transform="translate(-1168.104 -847.954)">
    <g id="Group_6125" data-name="Group 6125" transform="translate(1168.104 880.717)">
      <path id="Path_14241" data-name="Path 14241" d="M1048.8,684.011c3.764-10.424,66.183-51.211,83.887-56.079l15.868,84.441s-51.453,18.33-74.328,15.648C1043.2,724.382,1042.442,701.615,1048.8,684.011Z" transform="translate(-1045.624 -524.319)" fill="#0b0b0b"/>
      <path id="Path_14242" data-name="Path 14242" d="M1046.953,777.938c1.983,10.48,9.747,19.293,28.062,21.441,22.875,2.682,71.131-9.359,71.131-9.359l-1.956-41.564C1112.989,760.93,1079.42,794.213,1046.953,777.938Z" transform="translate(-1046.411 -595.677)" fill="#0b0b0b"/>
      <path id="Path_14243" data-name="Path 14243" d="M1614.139,693.148c-3.384-12-75.746-60.958-93.587-64.65l-3.235,84.21s51.09,16.3,68.931,18.758S1617.523,705.145,1614.139,693.148Z" transform="translate(-1324.899 -524.655)" fill="#0b0b0b"/>
      <path id="Path_14244" data-name="Path 14244" d="M1518.5,780.247l-.63,26.395s52.02,15.379,69.862,17.84c17.095,2.358,29.068-26.862,27.066-39.867C1602.64,816.736,1555.531,794.193,1518.5,780.247Z" transform="translate(-1325.229 -614.501)" fill="#0b0b0b"/>
      <path id="Path_14245" data-name="Path 14245" d="M1502.286,1210.013c-.1-1.846-61.644-243.409-61.644-243.409l-48.871-25.158L1500.052,1212.3Z" transform="translate(-1250.567 -709.942)" fill="#fca66d"/>
      <path id="Path_14246" data-name="Path 14246" d="M1496.765,1187.676c-15.123-60.154-56.123-221.072-56.123-221.072l-48.871-25.158,102.189,255.616A54.938,54.938,0,0,1,1496.765,1187.676Z" transform="translate(-1250.567 -709.942)" fill="#f57e53"/>
      <path id="Path_14247" data-name="Path 14247" d="M1223.644,1226.426c0-1.846,43.513-241.221,43.513-241.221l41.99-16.611-82.595,258.86Z" transform="translate(-1151.024 -726.015)" fill="#fca66d"/>
      <path id="Path_14248" data-name="Path 14248" d="M1236.016,1213.992l78.3-245.4L1272.326,985.2s-29.563,162.627-39.952,220.816A39.06,39.06,0,0,1,1236.016,1213.992Z" transform="translate(-1156.193 -726.015)" fill="#f57e53"/>
      <path id="Path_14249" data-name="Path 14249" d="M1252.384,1206.946l-19.245-5.346,29.7-214.431,89.324.652L1400,1193.189l-18.166,16.5-61.523-144.734-23.532,6.922Z" transform="translate(-1156.646 -737.013)" fill="#062544"/>
      <path id="Path_14250" data-name="Path 14250" d="M1338.05,1005.683c22.927-3.633,44.455-.8,56.135,6.831l-5.751-24.692-89.324-.652-4.706,33.981C1304.49,1013.89,1321.109,1008.367,1338.05,1005.683Z" transform="translate(-1192.919 -737.013)" fill="#081726"/>
      <path id="Path_14251" data-name="Path 14251" d="M1345.784,1146.889a120.906,120.906,0,0,1-45,7.18c-5.117,40.974-27.407,108.2-45.22,144.637l10.1,2.8,47.352-133.135,19.156-4.884,62.938,140.763,7.371-6.695C1380.585,1263.593,1352.791,1191.621,1345.784,1146.889Z" transform="translate(-1169.921 -831.578)" fill="#081726"/>
      <path id="Path_14252" data-name="Path 14252" d="M1684.191,1603.124h-31.313s-3.131-12.32,2.819-12.063S1684.191,1603.124,1684.191,1603.124Z" transform="translate(-1404.673 -1094.557)" fill="#f6eaa4"/>
      <path id="Path_14253" data-name="Path 14253" d="M1158.878,1603.124h31.312s3.132-12.32-2.817-12.063S1158.878,1603.124,1158.878,1603.124Z" transform="translate(-1112.678 -1094.557)" fill="#f6eaa4"/>
      <path id="Path_14254" data-name="Path 14254" d="M1263.834,767.965s9.177,0,22.571-.451c.645-.022.667-4.349,1.331-4.373,2.562-.093,4.977-.877,7.782-1.006.728-.033,2.377,4.911,3.118,4.876,12.211-.592,26.2-1.553,39.477-3.11,1.238-.145,2.166-3.958,3.388-4.114,2.875-.366,5.706-.762,8.464-1.189,1.076-.167,2.452,2.932,3.5,3.148,13.113,2.7,17.573-1.917,21.727-5.147l-4.614-31.07,3.384-22.763-6.768-96.592s-40.605-15.381-51.372-15.381-57.524,15.381-57.524,15.381l6.46,107.358-2.153,12.92S1261.68,765.812,1263.834,767.965Z" transform="translate(-1171.541 -502.33)" fill="#0b0b0b"/>
      <path id="Path_14255" data-name="Path 14255" d="M1484.072,615.516l-3.955,155.97-7.908.738,5.507-158.827Z" transform="translate(-1298.192 -515.714)" fill="#161515"/>
      <path id="Path_14256" data-name="Path 14256" d="M1291.711,614.714l9.535,160.311,8.151.757L1297.385,612.8Z" transform="translate(-1191.325 -515.359)" fill="#161515"/>
      <path id="Path_14257" data-name="Path 14257" d="M1374.274,781.166l3.912-22.005-1.956-54.523-7.335,43.521-4.4,17.849s1.222,33.741,1.222,34.719S1353,813.439,1353,813.439l-9.78,1.467-8.8-1.711-23.472,6.357-14.425-2.445-7.824-.245-13.692-11.736-2.771-45.232s-4.33-43.863-10.529-74.709l3.845,83.511-2.119,12.877s-.849,41.2,1.3,43.358c0,0,10.893-.362,24.287-.815.645-.022.066-5.064.73-5.088,2.562-.093,4.978-.877,7.782-1.006.728-.033,1.341,5.64,2.083,5.6,12.211-.592,27.634-1.214,40.913-2.771,1.238-.145,1.766-5.027,2.989-5.182,2.875-.366,5.705-.762,8.464-1.189,1.076-.167,1.844,3.874,2.891,4.089,13.113,2.7,19.319-2.149,23.472-5.379Z" transform="translate(-1173.561 -558.217)" fill="#161515"/>
      <path id="Path_14258" data-name="Path 14258" d="M1350.516,840.421c2.36,2.831,8.139-1.952,9.2-5.913s-2.06-11.133-5.135-10.426S1346.875,836.052,1350.516,840.421Z" transform="translate(-1225.351 -640.425)" fill="#fca66d"/>
      <path id="Path_14259" data-name="Path 14259" d="M1364.907,813.62c3.121,1.958,6.7-4.69,6.475-8.784s-5.412-9.944-8.115-8.318S1360.089,810.6,1364.907,813.62Z" transform="translate(-1232.496 -623.969)" fill="#fca66d"/>
      <path id="Path_14260" data-name="Path 14260" d="M1369.486,790.689c3.2,1.821,6.488-4.976,6.088-9.057s-5.839-9.7-8.469-7.958S1364.542,787.879,1369.486,790.689Z" transform="translate(-1234.942 -610.416)" fill="#fca66d"/>
      <path id="Path_14261" data-name="Path 14261" d="M1339.52,785.372c3.784-8.374,4.345-14.866,1.823-16.631s-12.686-4.011-18.855-2.32S1339.52,785.372,1339.52,785.372Z" transform="translate(-1208.929 -605.96)" fill="#f57e53"/>
      <path id="Path_14262" data-name="Path 14262" d="M1296.207,608.01l18.542,76.648-4.487,88.71,7.743-1.755,3.319-89.128-19.552-75.645Z" transform="translate(-1193.987 -511.832)" fill="#602237"/>
      <path id="Path_14263" data-name="Path 14263" d="M1435.279,807.957c-3.217,1.8-6.9-4.735-6.474-8.813s5.908-9.658,8.527-7.9S1440.244,805.181,1435.279,807.957Z" transform="translate(-1272.474 -620.815)" fill="#fca66d"/>
      <path id="Path_14264" data-name="Path 14264" d="M1431.843,779.142c-3.616.712-4.577-6.776-2.9-10.52s8.613-7.349,10.557-4.864S1437.424,778.042,1431.843,779.142Z" transform="translate(-1272.101 -604.252)" fill="#fca66d"/>
      <path id="Path_14265" data-name="Path 14265" d="M1435.562,756.175c-3.644.554-4.279-6.968-2.445-10.636s8.924-6.968,10.758-4.4S1441.186,755.319,1435.562,756.175Z" transform="translate(-1274.458 -590.806)" fill="#fca66d"/>
      <path id="Path_14266" data-name="Path 14266" d="M1450.225,757.065c-.538-9.173,1.262-15.437,4.249-16.182s13.283.794,18.442,4.581S1450.225,757.065,1450.225,757.065Z" transform="translate(-1285.12 -591.086)" fill="#f57e53"/>
      <path id="Path_14267" data-name="Path 14267" d="M1469.351,612.021,1456.3,684.788l6.5,86.36-7.918.76-5.333-88.574,14.027-73.361Z" transform="translate(-1284.774 -513.686)" fill="#602237"/>
      <path id="Path_14268" data-name="Path 14268" d="M1065.289,756.889c-1.225-20.821,23.26-34.781,30.335-33.551s42.77,19.492,62.274,19.947c3.939.092,5.279,30.333,3.741,34.332s-78.833-.794-84.37-2.025S1065.6,762.119,1065.289,756.889Z" transform="translate(-1057.24 -580.762)" fill="#fca66d"/>
      <path id="Path_14269" data-name="Path 14269" d="M1605.035,771.329c4.783-20.4-21.8-31.137-28.425-30.46s-38.894,14-60.618,10.3c-3.838-.653-3.558,29.872-2.872,33.924s66.146,7.081,71.376,6.288S1603.833,776.453,1605.035,771.329Z" transform="translate(-1322.17 -591.168)" fill="#fca66d"/>
      <path id="Path_14270" data-name="Path 14270" d="M1414.183,1024.476l3.912,41.076,5.868-1.222.489-41.565Z" transform="translate(-1263.837 -758.088)" fill="#081726"/>
      <path id="Path_14271" data-name="Path 14271" d="M1405.6,1026.16l-15,1.467v9.617l15-1.467Z" transform="translate(-1249.879 -760.098)" fill="#081726"/>
      <path id="Path_14272" data-name="Path 14272" d="M1408.776,1025.113l-13.161,1.793v7.547l13.161-1.793Z" transform="translate(-1252.843 -759.479)" fill="#081726"/>
      <path id="Path_14273" data-name="Path 14273" d="M1336.349,595.173l26.372,51.833,3.667-35.941,24.879-14S1367.832,579.516,1336.349,595.173Z" transform="translate(-1217.754 -501.075)" fill="#fca66d"/>
      <path id="Path_14274" data-name="Path 14274" d="M1344.258,577.221l1.3-17.767h45.476l.815,19.4s-13.89,10.611-24.124,10.269S1344.258,577.221,1344.258,577.221Z" transform="translate(-1222.436 -483.776)" fill="#fca66d"/>
      <path id="Path_14275" data-name="Path 14275" d="M1434.51,602.609l-26.9,14.67-.947,15.308,30.6-25.733Z" transform="translate(-1259.388 -509.326)" fill="#ffd9c4"/>
      <path id="Path_14276" data-name="Path 14276" d="M1601.124,771.932a20.1,20.1,0,0,1-.524,4.509c-1.2,5.124-14.331,19.745-19.56,20.538-34.4,5.216-52.5,7.919-67.319,6.52.687,4.052,68.609,9.595,73.839,8.8s18.358-15.414,19.56-20.538C1608.961,783.908,1605.924,777.191,1601.124,771.932Z" transform="translate(-1322.77 -609.578)" fill="#f57e53"/>
      <path id="Path_14277" data-name="Path 14277" d="M1081.789,778.475c-5.537-1.23-12.612-13.535-12.92-18.764a25.686,25.686,0,0,1,3.037-13.313c-7.7,6.49-14.415,15.818-13.8,26.353.308,5.23,7.383,17.535,12.921,18.765s84.822,3.8,86.36-.2C1139.159,791.369,1086.085,779.431,1081.789,778.475Z" transform="translate(-1052.994 -594.459)" fill="#f57e53"/>
      <path id="Path_14278" data-name="Path 14278" d="M1466.7,790.62c-7.588-.94-26.034-2.851-30.977-7.35-2.414-2.2-2.9-8.83-2.089-15.513s1.7-17.915,4.931-18.541,11.165,2.119,14.141.937c7.006-2.78,14.64,2.791,18.384,6.222C1477.018,761.81,1481.507,792.456,1466.7,790.62Z" transform="translate(-1275.137 -596.073)" fill="#fca66d"/>
      <path id="Path_14279" data-name="Path 14279" d="M1267.278,802.741c7.421,1.836,25.325,6.65,31.549,4.218,3.04-1.188,5.87-7.206,7.5-13.739s4.825-17.337,2.031-19.078-15.71-3.913-18.066-6.08c-5.546-5.1-19.359,1.07-24.083,2.934C1258.729,773.949,1252.8,799.157,1267.278,802.741Z" transform="translate(-1171.608 -606.116)" fill="#fca66d"/>
      <path id="Path_14280" data-name="Path 14280" d="M1317.786,610.536c24.866,0,47.051-8.786,58.77-19.073a49.545,49.545,0,0,0-10.042-3.844h0s-3.984-1.509-9.783-3.581l.012-.46-1.479-.493.175-.974-5.777-2.05-.268,1.4-.7-.239-2.711-4.168-3.125,1.7c-.673-.417-1.554-.931-2.647-1.5l-.749-17.809h-45.477l-1.24,16.9c-1.087.471-2.182.97-3.29,1.522h0c-3.452.974-6.935,1.994-10.272,2.995l-.539-2.084-5.565,1.169.572,2.364-2.406.812.009.155c-6.848,2.121-12.036,3.81-13.309,4.226l-.023-.123c-.24.067-.519.164-.775.243C1266.66,599.467,1289.874,610.536,1317.786,610.536Z" transform="translate(-1170.862 -483.776)" fill="#712225" opacity="0.6" style="mix-blend-mode: multiply;isolation: isolate"/>
      <path id="Path_14281" data-name="Path 14281" d="M1313.052,478.577c-8.576-5.033-13.343,8.584-.451,17.9S1317.153,480.985,1313.052,478.577Z" transform="translate(-1198.991 -435.249)" fill="#fca66d"/>
      <path id="Path_14282" data-name="Path 14282" d="M1318.62,487.137c-5.956-3.5-9.267,5.961-.313,12.432S1321.469,488.808,1318.62,487.137Z" transform="translate(-1203.806 -440.513)" fill="#e36445"/>
      <path id="Path_14283" data-name="Path 14283" d="M1325.566,499.749c-4.021-2.36-6.255,4.026-.21,8.394S1327.489,500.877,1325.566,499.749Z" transform="translate(-1209.04 -448.125)" fill="#fca66d"/>
      <path id="Path_14284" data-name="Path 14284" d="M1471.432,483.741c9.114-3.979,12.228,10.109-1.681,17.829S1467.073,485.644,1471.432,483.741Z" transform="translate(-1292.746 -438.537)" fill="#fca66d"/>
      <path id="Path_14285" data-name="Path 14285" d="M1472.785,495.607c5.959-2.6,8,6.61-1.1,11.657S1469.935,496.851,1472.785,495.607Z" transform="translate(-1295.273 -445.705)" fill="#e36445"/>
      <path id="Path_14286" data-name="Path 14286" d="M1467.731,506.529c4.428-1.933,5.941,4.912-.817,8.663S1465.613,507.454,1467.731,506.529Z" transform="translate(-1293.118 -452.241)" fill="#fca66d"/>
      <path id="Path_14287" data-name="Path 14287" d="M1329.953,419.788c1.461,18.631,4.4,41.216,4.4,41.216s16.618,14.285,26.406,14.285c12.714,0,26.426-16.131,26.426-16.131s3.647-35.5,3.647-40.348,9.613-36.3-25.917-42.3S1329.03,408.021,1329.953,419.788Z" transform="translate(-1213.836 -375.079)" fill="#fca66d"/>
      <ellipse id="Ellipse_125" data-name="Ellipse 125" cx="3.097" cy="4.238" rx="3.097" ry="4.238" transform="translate(157.356 50.414)" fill="#3b201f"/>
      <ellipse id="Ellipse_126" data-name="Ellipse 126" cx="3.097" cy="4.238" rx="3.097" ry="4.238" transform="translate(128.994 50.414)" fill="#3b201f"/>
      <path id="Path_14288" data-name="Path 14288" d="M1364.176,374.573c-35.53-6-36.742,32-35.819,43.766,1.461,18.63,5.072,41.521,5.072,41.521s.519.443,1.383,1.143c-.5-4.032-2.859-23.5-4.1-39.878-.88-11.6-.54-48.591,33.349-42.676s24.719,36.934,24.719,41.712c0,4.307-2.825,33.168-3.382,38.819.541-.59.865-.966.865-.966s4.136-35.748,4.136-40.593S1399.705,380.572,1364.176,374.573Z" transform="translate(-1212.912 -373.936)" fill="#f57e53"/>
      <path id="Path_14289" data-name="Path 14289" d="M1391.289,487.109c-9.406-1.223-41.975-2.812-51.661-1.1l-1.263,3.3s15.442,6.112,26.953,6.6,27.937-5.135,27.937-5.135Z" transform="translate(-1218.946 -439.847)" fill="#8f332c"/>
      <path id="Path_14290" data-name="Path 14290" d="M1391.729,476.328s-5.053,31.6-4.4,33.884,5.253,3.179,7.314,3.179c2.71,0,6.051-1.365,6.7-2.364s-3.219-34.984-3.219-34.984Z" transform="translate(-1247.902 -434.39)" fill="#e36445"/>
      <path id="Path_14291" data-name="Path 14291" d="M1393.5,460.767s-3.881,36.815-3.324,39.386,3.878,2.719,5.7,2.719c3.022,0,5.834-.479,6.258-1.8.34-1.059-2.36-40.713-2.36-40.713Z" transform="translate(-1249.588 -425.104)" fill="#fca66d"/>
      <path id="Path_14292" data-name="Path 14292" d="M1365.351,572.4c-2.364-5.216.081-12.958,6.52-8.72s15.485,4.809,15.485,4.809l.021.527S1369.426,570.929,1365.351,572.4Z" transform="translate(-1234.402 -485.552)" fill="#3f2028"/>
      <path id="Path_14293" data-name="Path 14293" d="M1367.549,572.107c-1.711-4.343.679-10.707,5.309-7.19a32.879,32.879,0,0,0,10.6,4.974S1370.467,570.873,1367.549,572.107Z" transform="translate(-1235.898 -486.406)" fill="#fffbe8"/>
      <path id="Path_14294" data-name="Path 14294" d="M1359.833,566.3c-.427-5.012.367-10.208,5.991-9.352a4.206,4.206,0,0,0-5.868,1.528C1358.428,560.8,1359.833,566.3,1359.833,566.3Z" transform="translate(-1231.309 -481.92)" fill="#e36445"/>
      <path id="Path_14295" data-name="Path 14295" d="M1398.278,584.21c-4.059.2-5.012,1.956-5.073,2.445s4.067-2.357,8.068-1.284C1403.323,585.921,1401.946,584.027,1398.278,584.21Z" transform="translate(-1251.416 -498.425)" fill="#e36445"/>
      <path id="Path_14296" data-name="Path 14296" d="M1367.288,565.2s-.489,2.873,4.157,3.912c0,0-4.523-.489-5.624,2.567a7.418,7.418,0,0,1-.183-3.912A5.613,5.613,0,0,1,1367.288,565.2Z" transform="translate(-1234.974 -487.177)" fill="#3f2028"/>
    </g>
    <g id="HACKER" transform="translate(1202.743 847.954)">
      <path id="Path_14297" data-name="Path 14297" d="M1349.409,640.015c-20.816-14.248-29.166-27.743-37.262-31.213-8.566-3.671-19.929-6.934-28.841-9.79s-41.917-4.9-41.917-4.9l-.2,2.01-.2-2.01s-33,2.039-41.917,4.9-20.274,6.119-28.841,9.79c-8.1,3.47-27.04,22.257-36.671,27.757,0,0,43.532,17.45,97.493,18.314S1349.409,640.015,1349.409,640.015Z" transform="translate(-1133.565 -471.861)" fill="#0b0b0b"/>
      <path id="Path_14298" data-name="Path 14298" d="M1361.885,347.78c-11.323-25.542-30.56-25.542-30.56-25.542h-.031s-19.237,0-30.561,25.542c-8.893,20.06-22.29,87.19-11.258,97.061,11.894,10.643,41.819,14.9,41.819,14.9s29.955-4.257,41.85-14.9C1384.175,434.971,1370.778,367.84,1361.885,347.78Z" transform="translate(-1223.41 -310.89)" fill="#0b0b0b"/>
      <path id="Path_14299" data-name="Path 14299" d="M1464.947,454.186a10.731,10.731,0,0,0,5.915-3.965c5.6-7.1,2.135-19.275-5.971-15.459C1462.769,443.514,1464.947,454.186,1464.947,454.186Z" transform="translate(-1329.183 -377.084)" fill="#b55637"/>
      <path id="Path_14300" data-name="Path 14300" d="M1305.3,462.423a10.735,10.735,0,0,1-6.411-3.1c-6.536-6.246-4.8-18.789,3.758-16.141C1305.972,451.551,1305.3,462.423,1305.3,462.423Z" transform="translate(-1229.101 -382.282)" fill="#b55637"/>
      <path id="Path_14301" data-name="Path 14301" d="M1340.826,525.386s1.654,12.51,2.958,17.949-.274,10.878-4.108,12.238c-.027,3.263,5.918,16.317,25.79,16.317S1386.85,555.3,1386.85,555.3s-5.653-2.991-4.67-11.966,2.773-14.933,2.614-18.765C1384.694,522.189,1357.333,536.009,1340.826,525.386Z" transform="translate(-1255.597 -430.518)" fill="url(#linear-gradient)"/>
      <path id="Path_14302" data-name="Path 14302" d="M1352.023,588.147c-.272-3.807-8.756-23.079-8.756-23.079h0c.176.893.349,1.711.517,2.411,1.3,5.439-.274,10.878-4.108,12.238-.018,2.131,2.515,8.438,9.809,12.557.066.036.121.068.171.1.11.061.227.118.339.178C1351.433,593.18,1352.277,591.713,1352.023,588.147Z" transform="translate(-1255.597 -454.662)" fill="#c86139"/>
      <path id="Path_14303" data-name="Path 14303" d="M1433.586,567.6c.021-.2.046-.391.069-.588-.157-.563.147-1.139.211-1.741-1.773,5.613-9.263,23.054-6.912,27.542.563.759,2.048.528,4.389-1.035a17.79,17.79,0,0,0,1.686-1.509v0c.174-.2.394-.434.642-.689a19.358,19.358,0,0,0,4.584-10.011S1432.6,576.573,1433.586,567.6Z" transform="translate(-1307.004 -454.781)" fill="#c86139"/>
      <path id="Path_14304" data-name="Path 14304" d="M1311.609,387.237s1.686,35.354,11.449,40.521,13.157,6.331,16.154,8.567c3.392,2.53,7.789,3.245,12.354-.134,4.779-3.538,13.614-7.094,15.674-8.255,7.19-4.053,9.493-30.214,9.229-46.744-.2-12.787-16.2-26.249-31.863-23.8S1311.813,365.48,1311.609,387.237Z" transform="translate(-1238.98 -331.531)" fill="#f4a572"/>
      <path id="Path_14305" data-name="Path 14305" d="M1364.667,453.487c-6.785,4.026-16.06-7.561-21.1-6.854s-11.545,9.9-15.26,9.584c-6.935-5.7-12.281-7.026-15.754-7.031,1.029,4.577,4.753,13.855,17.974,12.377,10.334-1.156,11.014-6.526,16.17-7.083s6.939,5.7,16.872,5.7c4.623,0,12.364-3.089,14.278-12.9a19.747,19.747,0,0,0,.316-3C1375.516,447.724,1369.664,450.522,1364.667,453.487Z" transform="translate(-1239.535 -383.149)" fill="#c86139"/>
      <path id="Path_14306" data-name="Path 14306" d="M1311.126,419.565s.916,16.772,18.357,14.821c10.334-1.156,11.014-6.527,16.17-7.083s6.939,5.7,16.872,5.7c4.623,0,12.363-3.089,14.277-12.9,1.088-5.575-.8-14.958-.8-14.958s-18.8-4.015-29.845-4.015c-12.563,0-34.2,7.007-34.2,7.007S1310.037,416.029,1311.126,419.565Z" transform="translate(-1238.496 -357.603)" fill="#0b0b0b"/>
      <path id="Path_14307" data-name="Path 14307" d="M1376.654,364.754c-.643-7.91-7.208-43.681-34.415-42.485-30.912,1.36-34.629,54.663-34.629,54.663s3.807-6.527,6.866-10.878a112.961,112.961,0,0,0,24.809-15.23s-2.3,13.054-1.354,13.6c15.637-7.615,19.173-16.861,19.173-16.861A72.323,72.323,0,0,0,1376.654,364.754Z" transform="translate(-1236.612 -310.891)" fill="#feaf6c"/>
      <path id="Path_14308" data-name="Path 14308" d="M1342.239,380.312c-9.556,9.846-25.386,16.624-25.386,16.624L1321.887,385l-13.8,21.894c-.362,2.748-.479,4.418-.479,4.418s3.807-6.527,6.866-10.878a123.182,123.182,0,0,0,24.809-15.23C1340.242,383.969,1342.239,380.312,1342.239,380.312Z" transform="translate(-1236.612 -345.274)" fill="#c86139"/>
      <path id="Path_14309" data-name="Path 14309" d="M1421.631,396.472c-.029-.352-.07-.761-.123-1.217-4.346-3.632-15.982-13.671-18.951-19.443-3.193,5.26-13.13,16.223-18.983,19.994,15.064-7.548,18.508-16.527,18.508-16.527A72.314,72.314,0,0,0,1421.631,396.472Z" transform="translate(-1281.588 -342.61)" fill="#c86139"/>
      <path id="Path_14310" data-name="Path 14310" d="M1248.167,615.858s5.211,6.247,17.721,6.927,46.072,2.511,46.072,2.511-25.881-7.95-35.024-9.038a157.716,157.716,0,0,1-19.206-3.807Z" transform="translate(-1201.417 -482.716)" fill="#080808"/>
      <path id="Path_14311" data-name="Path 14311" d="M1457.568,615.035s-4.123,5.574-16.634,6.254-39.173,4.007-39.173,4.007,20.342-7.95,29.485-9.038a157.723,157.723,0,0,0,19.207-3.807Z" transform="translate(-1292.356 -482.716)" fill="#080808"/>
      <path id="Path_14312" data-name="Path 14312" d="M1367.244,390.841c-7.619-24.984-10.242-47.736-18.429-66.979s-31.348-30.077-46.593-29.414-37.379,13.467-43.864,33.348-7.123,42.774-12.544,68.326-5.192,40.241,19.048,43.677,44.007,7.478,44.007,7.478,19.34-5.741,43.19-11.269S1374.865,415.825,1367.244,390.841ZM1345,424.882c-10.386,10.66-36.357,17.505-36.357,17.505s-27.423-2.891-38.694-12.608c-10.455-9.013-1.052-73.81,6.209-93.366,9.246-24.9,26.76-25.663,26.76-25.663h.028s15.757-1.774,26.6,25.52C1337.246,355.656,1354.632,415,1345,424.882Z" transform="translate(-1198.327 -294.419)" fill="#161515"/>
      <path id="Path_14313" data-name="Path 14313" d="M1351.61,504.611s.816,2.277,6.119,1.632c5.184-.631,8.838-3.053,11.966-.71,2.856-2.553,6.818-.092,9.927.3,4.113.523,8.248-.544,8.407-2.855" transform="translate(-1262.663 -417.901)" fill="none" stroke="#b55637" stroke-linecap="round" stroke-width="1"/>
      <path id="Path_14314" data-name="Path 14314" d="M1383.61,517.812l5.156,1.428,4.634-1.428" transform="translate(-1281.609 -426.684)" fill="none" stroke="#b55637" stroke-linecap="round" stroke-width="1"/>
      <path id="Path_14315" data-name="Path 14315" d="M1421.44,420.139c-4.283.408-11.83,3.671-11.83,12.238s11.56,9.114,17.405,5.031c4.283-2.992,6.471-7.628,4.395-12.646C1428.962,418.847,1421.44,420.139,1421.44,420.139Z" transform="translate(-1297.003 -368.784)" fill="#080808"/>
      <path id="Path_14316" data-name="Path 14316" d="M1332.229,426.451c4.294-.272,12.26,1.763,13.609,10.223s-9.982,10.82-16.4,7.708c-4.7-2.28-7.592-6.513-6.331-11.8C1324.6,426.36,1332.229,426.451,1332.229,426.451Z" transform="translate(-1245.615 -372.578)" fill="#080808"/>
      <path id="Path_14317" data-name="Path 14317" d="M1386.166,587.163c-1.184-6.663-8.054-9.519-8.054-9.519a19.7,19.7,0,0,0,1.079,5.032s3.1,3.828,2.422,8.294c-1.525,9.982-21.308,12.494-21.308,12.494s-20.139-5.219-22.356-10.739c-1.683-4.192,1.608-9.06,1.608-9.06a15.882,15.882,0,0,0,.7-4.932s-6.771,3.937-7.243,10.688,2.4,11.313,10.09,14.06,16.829,5.092,16.829,5.092,10.919-2.329,18.271-5.874S1387.35,593.826,1386.166,587.163Z" transform="translate(-1251.626 -462.108)" fill="#080808"/>
      <path id="Path_14318" data-name="Path 14318" d="M1318.693,486.4h0c1.722,8.068,4.412,15.715,8.56,17.911,9.763,5.167,13.157,6.331,16.155,8.567,0,0-7.615-7.343-11.92-10.2S1318.693,486.4,1318.693,486.4Z" transform="translate(-1243.173 -408.086)" fill="#c86139"/>
      <path id="Path_14319" data-name="Path 14319" d="M1432.983,479.277v-.019s-4.758,13.484-10.645,18.369c-4.837,4.015-12.778,10.89-12.778,10.89,4.779-3.538,13.614-7.094,15.674-8.255C1429.127,498.068,1431.587,489.394,1432.983,479.277Z" transform="translate(-1296.974 -403.857)" fill="#c86139"/>
      <path id="Path_14320" data-name="Path 14320" d="M1391.965,473.4c-1.238.011-3.459,5.368-3.171,6.23.214.639,1.894.771,2.865.793v.024s.134-.005.344-.02.344,0,.344,0v-.024c.968-.089,2.817-.375,2.987-1.029C1395.562,478.487,1393.409,473.383,1391.965,473.4Z" transform="translate(-1284.664 -400.386)" fill="#c86139"/>
    </g>
  </g>
</svg>
