<svg xmlns="http://www.w3.org/2000/svg" xmlns:xlink="http://www.w3.org/1999/xlink" width="394.208" height="120.414" viewBox="0 0 394.208 120.414">
  <defs>
    <linearGradient id="linear-gradient" x1="0.5" y1="-0.543" x2="0.5" y2="0.847" gradientUnits="objectBoundingBox">
      <stop offset="0" stop-color="#03f"/>
      <stop offset="0.582" stop-color="#583ddf"/>
      <stop offset="1" stop-color="red" stop-opacity="0.4"/>
    </linearGradient>
    <linearGradient id="linear-gradient-2" x1="0.04" y1="0.109" x2="1.088" y2="1.362" gradientUnits="objectBoundingBox">
      <stop offset="0" stop-color="#2c4ed7"/>
      <stop offset="0" stop-color="red"/>
      <stop offset="1" stop-color="#ff5757"/>
    </linearGradient>
    <linearGradient id="linear-gradient-3" x1="0.036" y1="0.141" x2="1.083" y2="1.431" gradientUnits="objectBoundingBox">
      <stop offset="0" stop-color="#2c4ed7"/>
      <stop offset="0" stop-color="#03f"/>
      <stop offset="1" stop-color="#776ff3"/>
    </linearGradient>
    <linearGradient id="linear-gradient-4" x1="-2.384" y1="-12.457" x2="0.627" y2="1.072" gradientUnits="objectBoundingBox">
      <stop offset="0" stop-color="#2c4ed7"/>
      <stop offset="0.314" stop-color="#477de2"/>
      <stop offset="0.613" stop-color="#5ca3eb"/>
      <stop offset="0.851" stop-color="#6abbf0"/>
      <stop offset="1" stop-color="#6fc4f3"/>
    </linearGradient>
    <linearGradient id="linear-gradient-5" x1="-2.159" y1="-11.442" x2="0.853" y2="2.084" xlink:href="#linear-gradient-4"/>
    <linearGradient id="linear-gradient-6" x1="-0.709" y1="-4.933" x2="2.302" y2="8.596" xlink:href="#linear-gradient-4"/>
    <linearGradient id="linear-gradient-7" x1="-3.399" y1="-17.013" x2="-0.387" y2="-3.484" xlink:href="#linear-gradient-4"/>
    <linearGradient id="linear-gradient-8" x1="-1.779" y1="-9.737" x2="1.233" y2="3.792" xlink:href="#linear-gradient-4"/>
    <linearGradient id="linear-gradient-9" x1="-3.106" y1="-15.694" x2="-0.094" y2="-2.168" xlink:href="#linear-gradient-4"/>
    <linearGradient id="linear-gradient-10" x1="-2.176" y1="-11.519" x2="0.836" y2="2.01" xlink:href="#linear-gradient-4"/>
  </defs>
  <g id="Group_1762" data-name="Group 1762" transform="translate(7.42 12)" style="mix-blend-mode: normal;isolation: isolate">
    <path id="Path_14661" data-name="Path 14661" d="M404.637,463.38h0l1.728-3.045L434.4,410.954l14.379,18.872h30.008l23.132-58.017,33.134,46.833,41.262-18.173,25.632,10.484,17.5-16.778,30.009-26.559,20.005,32.853,3.751,10.484,27.507-16.778,25.632,6.294h11.253l15-10.487,10,20.971-20.005-6.291-12.095-2.8L705.9,445.019s-18.78-6.226-19.428-6.661-32.121,6.661-32.121,6.661L622.623,416.2s-16.536-7.455-16.854-7.353-7.619,4.564-7.619,4.564l-41.314,27.679-18.01-22.447-7.511.489-51.5,20.737L459.619,435.2l-5.518-4.37s-8.508-1.577-9.427-1-7.97,3.4-7.97,3.4l-32.066,30.8" transform="translate(-400.057 -367.617)" opacity="0.65" fill="url(#linear-gradient)"/>
    <g id="Group_1761" data-name="Group 1761" transform="translate(0 0.376)">
      <g id="Group_1758" data-name="Group 1758" transform="translate(0 20.52)">
        <path id="Path_14177" data-name="Path 14177" d="M401.526,459.9l-1.469-.977L433.8,401.313l24.575,27.26,20.14,5.507,51.38-18.306,46.932-24.127,44.895,20.2,30.809,26.841,33.406-5.612,20.66,6.526,23.784-42.71L755.9,383.513l30.144,75.406-1.591.728-29.428-73.615L731.6,398.306l-24.209,43.47-21.575-6.813-33.784,5.674-31.5-27.448-43.71-18.82-45.967,23.01-.211.075-52.074,18.553-21.136-5.779-23.385-25.859Z" transform="translate(-400.057 -383.513)" fill="url(#linear-gradient-2)"/>
      </g>
      <g id="Group_1759" data-name="Group 1759" transform="translate(0.142 0.387)">
        <path id="Path_14178" data-name="Path 14178" d="M785.542,413.585l-34.51-7.069-47.978-19.152-29.512,13.522-22.957-34.963L617.5,389.263l-17.448,21.406-43.7,27.757L501.22,369.868l-21.977,48.255L433.69,429.739l-32.355,30.292-1.136-1.4,32.675-30.593.208-.054L478.109,416.5l22.815-49.844,55.245,68.69,42.759-26.224,17.9-21.577,34.205-24.167,23.117,35.206,29.04-13.306,49.056,19.9,34.6,7.177Z" transform="translate(-400.2 -363.38)" fill="url(#linear-gradient-3)"/>
      </g>
      <path id="Path_14179" data-name="Path 14179" d="M429.4,391.507a2.526,2.526,0,1,0,2.525,2.526A2.529,2.529,0,0,0,429.4,391.507Z" transform="translate(-395.698 -353.875)" fill="#ffbcbc"/>
      <path id="Path_14180" data-name="Path 14180" d="M449.558,413.2a2.525,2.525,0,1,0,2.526,2.526A2.529,2.529,0,0,0,449.558,413.2Z" transform="translate(-396.057 -355.448)" fill="url(#linear-gradient-4)"/>
      <path id="Path_14181" data-name="Path 14181" d="M467.483,417.584a2.525,2.525,0,1,0,2.525,2.526A2.529,2.529,0,0,0,467.483,417.584Z" transform="translate(-388.872 -347.4)" fill="#ffbcbc"/>
      <path id="Path_14182" data-name="Path 14182" d="M463.79,404.66a2.526,2.526,0,1,0,2.526,2.526A2.53,2.53,0,0,0,463.79,404.66Z" transform="translate(-385.18 -352.96)" fill="url(#linear-gradient-5)"/>
      <g id="Component_18_1" data-name="Component 18 – 1" transform="translate(98.45 3.077)">
        <path id="Path_14183" data-name="Path 14183" d="M486.56,365.07a2.525,2.525,0,1,0,2.526,2.525A2.529,2.529,0,0,0,486.56,365.07Z" transform="translate(-484.034 -365.07)" fill="url(#linear-gradient-6)"/>
      </g>
      <path id="Path_14184" data-name="Path 14184" d="M533.741,418.61a2.526,2.526,0,1,0,2.526,2.525A2.529,2.529,0,0,0,533.741,418.61Z" transform="translate(-377.452 -347.155)" fill="url(#linear-gradient-7)"/>
      <path id="Path_14187" data-name="Path 14187" d="M614.769,361.993a2.525,2.525,0,1,0,2.526,2.525A2.529,2.529,0,0,0,614.769,361.993Z" transform="translate(-364.487 -361.993)" fill="url(#linear-gradient-8)"/>
      <path id="Path_14188" data-name="Path 14188" d="M634.154,389.275a2.526,2.526,0,1,0,2.526,2.526A2.53,2.53,0,0,0,634.154,389.275Z" transform="translate(-360.146 -356.695)" fill="url(#linear-gradient-9)"/>
      <path id="Path_14191" data-name="Path 14191" d="M428.712,412.866a2.525,2.525,0,1,0,2.526,2.526A2.529,2.529,0,0,0,428.712,412.866Z" transform="translate(-395.007 -350.063)" fill="url(#linear-gradient-10)"/>
      <path id="Path_14195" data-name="Path 14195" d="M615.948,421.43a2.525,2.525,0,1,0,2.526,2.526A2.529,2.529,0,0,0,615.948,421.43Z" transform="translate(-363.283 -346.48)" fill="#ffbcbc"/>
      <path id="Path_14197" data-name="Path 14197" d="M662.334,421.738a2.526,2.526,0,1,0,2.526,2.526A2.529,2.529,0,0,0,662.334,421.738Z" transform="translate(-355.289 -346.406)" fill="#ffbcbc"/>
      <path id="Path_14199" data-name="Path 14199" d="M662.334,421.738a2.526,2.526,0,1,0,2.526,2.526A2.529,2.529,0,0,0,662.334,421.738Z" transform="translate(-330.289 -389.158)" fill="#ffbcbc"/>
      <g id="Component_18_2" data-name="Component 18 – 2" transform="translate(174.211 27.633)">
        <path id="Path_14183-2" data-name="Path 14183" d="M486.56,365.07a2.525,2.525,0,1,0,2.526,2.525A2.529,2.529,0,0,0,486.56,365.07Z" transform="translate(-484.034 -365.07)" fill="#ffbcbc"/>
      </g>
    </g>
  </g>
</svg>
