<svg xmlns="http://www.w3.org/2000/svg" xmlns:xlink="http://www.w3.org/1999/xlink" width="234.251" height="234.251" viewBox="0 0 234.251 234.251">
  <defs>
    <linearGradient id="linear-gradient" x1="0.55" y1="0.147" x2="0.5" y2="1" gradientUnits="objectBoundingBox">
      <stop offset="0" stop-color="#67eee8"/>
      <stop offset="1" stop-color="#347774"/>
    </linearGradient>
    <linearGradient id="linear-gradient-2" x1="0.788" y1="-0.142" x2="0.812" y2="1" gradientUnits="objectBoundingBox">
      <stop offset="0" stop-color="#70fffa"/>
      <stop offset="1" stop-color="#38807d"/>
    </linearGradient>
    <filter id="Path_14237" x="103.626" y="9.828" width="123.45" height="175.466" filterUnits="userSpaceOnUse">
      <feOffset input="SourceAlpha"/>
      <feGaussianBlur stdDeviation="4.5" result="blur"/>
      <feFlood flood-color="#00fff5"/>
      <feComposite operator="in" in2="blur"/>
      <feComposite in="SourceGraphic"/>
    </filter>
  </defs>
  <g id="Group_1823" data-name="Group 1823" style="mix-blend-mode: normal;isolation: isolate">
    <g id="Group_1819" data-name="Group 1819" transform="translate(30.361 30.258)">
      <g id="Ellipse_122" data-name="Ellipse 122" transform="translate(0)" fill="none" stroke="#3e56ae" stroke-width="1">
        <circle cx="86.868" cy="86.868" r="86.868" stroke="none"/>
        <circle cx="86.868" cy="86.868" r="86.368" fill="none"/>
      </g>
    </g>
    <g id="Group_1820" data-name="Group 1820" transform="translate(0 0)">
      <path id="Path_14236" data-name="Path 14236" d="M353.681,260.807v-.194h0a3.518,3.518,0,0,1,3.269-3.6h0a3.57,3.57,0,0,1,3.785,3.332h0v.129h0a3.477,3.477,0,0,1-3.263,3.6h0a.427.427,0,0,1-.264.059h0A3.561,3.561,0,0,1,353.681,260.807Zm-18.085,2.88h0a3.487,3.487,0,0,1-3.134-3.531h0v-.393h0a3.536,3.536,0,0,1,3.914-3.138h0a3.5,3.5,0,0,1,3.134,3.6h0v.328h0a3.533,3.533,0,0,1-3.527,3.138H335.6Zm39.118-5.754a3.623,3.623,0,0,1-.135-.85h0a3.607,3.607,0,0,1,2.677-3.466h0a3.528,3.528,0,0,1,4.312,2.551h0a3.885,3.885,0,0,1,.129.85h0a3.624,3.624,0,0,1-2.607,3.46h0a4.772,4.772,0,0,1-.92.135h0A3.6,3.6,0,0,1,374.713,257.933Zm-60.537,1.243a3.475,3.475,0,0,1-2.548-3.337h0a2.719,2.719,0,0,1,.193-1.044h0a3.534,3.534,0,0,1,4.441-2.358h0a3.5,3.5,0,0,1,2.484,3.337h0a4.744,4.744,0,0,1-.135,1.044h0a3.594,3.594,0,0,1-3.392,2.551h0A2.708,2.708,0,0,1,314.176,259.176Zm80.714-7.983a2.994,2.994,0,0,1-.392-1.5h0a3.418,3.418,0,0,1,2.027-3.2h0a3.5,3.5,0,0,1,4.7,1.636h0a3.444,3.444,0,0,1,.392,1.566h0A3.689,3.689,0,0,1,399.6,252.9h0a4.237,4.237,0,0,1-1.506.323h0A3.413,3.413,0,0,1,394.89,251.193ZM293.929,250.8h0a3.643,3.643,0,0,1-1.892-3.138h0a3.188,3.188,0,0,1,.451-1.7h0a3.473,3.473,0,0,1,4.769-1.443h0a3.491,3.491,0,0,1,1.892,3.079h0a3.187,3.187,0,0,1-.451,1.7h0a3.5,3.5,0,0,1-3.134,1.895h0A3.7,3.7,0,0,1,293.929,250.8Zm119.446-10a3.59,3.59,0,0,1-.656-2.088h0a3.471,3.471,0,0,1,1.441-2.88h0a3.542,3.542,0,0,1,4.956.786h0a3.42,3.42,0,0,1,.656,2.094h0a3.658,3.658,0,0,1-1.435,2.874h0a3.611,3.611,0,0,1-2.091.657h0A3.469,3.469,0,0,1,413.374,240.8Zm-137.73-2.088a3.478,3.478,0,0,1-1.307-2.751h0a2.929,2.929,0,0,1,.785-2.223h0a3.52,3.52,0,0,1,4.962-.522v-.065a3.589,3.589,0,0,1,1.307,2.745h0a3.871,3.871,0,0,1-.785,2.288h0a3.468,3.468,0,0,1-2.742,1.308h0A3.571,3.571,0,0,1,275.644,238.712ZM429.632,227.14a3.785,3.785,0,0,1-1.113-2.622h0a3.615,3.615,0,0,1,.984-2.417h0a3.522,3.522,0,0,1,5.027-.129h0a3.561,3.561,0,0,1,1.113,2.616h0a3.313,3.313,0,0,1-.984,2.352h0a3.331,3.331,0,0,1-2.543,1.179h0A3.639,3.639,0,0,1,429.632,227.14ZM259.9,223.474a3.273,3.273,0,0,1-.844-2.223h0a3.307,3.307,0,0,1,1.236-2.745h0a3.461,3.461,0,0,1,4.962.393h0a3.157,3.157,0,0,1,.855,2.223h0a3.383,3.383,0,0,1-1.248,2.745h0a3.284,3.284,0,0,1-2.279.85h0A3.466,3.466,0,0,1,259.9,223.474Zm183.252-12.81a3.482,3.482,0,0,1-1.7-3.009h0a3.549,3.549,0,0,1,.586-1.83h0a3.509,3.509,0,0,1,4.9-1.114h0a3.571,3.571,0,0,1,1.635,3.009h0a3.56,3.56,0,0,1-.522,1.83h0a3.555,3.555,0,0,1-3.005,1.7h0A3.375,3.375,0,0,1,443.154,210.664Zm-195.918-5.038h0a3.836,3.836,0,0,1-.457-1.894h0a3.54,3.54,0,0,1,1.763-3.009h0a3.531,3.531,0,0,1,4.833,1.308h0a4.353,4.353,0,0,1,.521,1.7h0a3.781,3.781,0,0,1-1.828,3.2h0a4.145,4.145,0,0,1-1.763.458h0A3.638,3.638,0,0,1,247.236,205.626Zm206.107-13.6a3.663,3.663,0,0,1-2.291-3.4h0a3.888,3.888,0,0,1,.264-1.179h0a3.536,3.536,0,0,1,4.57-2.024h0a3.6,3.6,0,0,1,2.285,3.2h0a3.458,3.458,0,0,1-.258,1.372h0a3.518,3.518,0,0,1-3.334,2.287h0A2.839,2.839,0,0,1,453.342,192.03Zm-215.188-6.346a4.5,4.5,0,0,1-.193-1.238h0a3.44,3.44,0,0,1,2.349-3.273h0a3.516,3.516,0,0,1,4.505,2.158h0a2.078,2.078,0,0,1,.2,1.243h0a3.494,3.494,0,0,1-2.349,3.267h0a3.6,3.6,0,0,1-1.178.2h0A3.583,3.583,0,0,1,238.155,185.684ZM459.8,171.759a3.506,3.506,0,0,1-2.877-3.4h0a2.5,2.5,0,0,1,.07-.716h0a3.542,3.542,0,0,1,4.113-2.815h0a3.614,3.614,0,0,1,2.935,3.4h0c0,.264-.065.463-.065.721h0a3.551,3.551,0,0,1-3.462,2.88h0A2.486,2.486,0,0,1,459.8,171.759Zm-226.87-7.384c0-.2-.064-.393-.064-.528h0a3.643,3.643,0,0,1,3.07-3.531h0a3.527,3.527,0,0,1,3.978,3.009h0a1.524,1.524,0,0,1,.07.522h0a3.524,3.524,0,0,1-3.006,3.531h-.521A3.522,3.522,0,0,1,232.935,164.375ZM458.89,147.113a3.514,3.514,0,0,1,3.527-3.531h0a3.573,3.573,0,0,1,3.591,3.531h0a3.586,3.586,0,0,1-3.591,3.6h0A3.569,3.569,0,0,1,458.89,147.113ZM235.155,146.2a3.578,3.578,0,0,1-3.4-3.531h0v-.2h0a3.519,3.519,0,0,1,3.656-3.4h0a3.628,3.628,0,0,1,3.462,3.531h0v.194h0a3.592,3.592,0,0,1-3.591,3.4h-.129ZM458.24,135.277h0v-.393h0a3.6,3.6,0,0,1,3.2-3.531h0a3.611,3.611,0,0,1,3.914,3.144h0v.387h0a3.591,3.591,0,0,1-3.2,3.531h-.387A3.637,3.637,0,0,1,458.24,135.277ZM237.311,125.013a3.554,3.554,0,0,1-2.742-3.531h0a2.689,2.689,0,0,1,.065-.716h0a3.618,3.618,0,0,1,4.242-2.686h0a3.641,3.641,0,0,1,2.806,3.6h0c-.059.2-.059.463-.129.721h0a3.557,3.557,0,0,1-3.457,2.751h0A3.286,3.286,0,0,1,237.311,125.013Zm216.875-9.936a3.019,3.019,0,0,1-.193-1.05h0a3.711,3.711,0,0,1,2.548-3.4h0a3.612,3.612,0,0,1,4.441,2.417h0a5.193,5.193,0,0,1,.129,1.05h0a3.489,3.489,0,0,1-2.478,3.332h0a3.319,3.319,0,0,1-1.049.2h0A3.555,3.555,0,0,1,454.186,115.077ZM243.381,104.613a3.527,3.527,0,0,1-2.15-3.267h0a3.554,3.554,0,0,1,.322-1.372h0a3.493,3.493,0,0,1,4.64-1.83h0a3.527,3.527,0,0,1,2.15,3.267h0a3.3,3.3,0,0,1-.322,1.372h0a3.535,3.535,0,0,1-3.263,2.158h0A3.454,3.454,0,0,1,243.381,104.613ZM446.417,96.05h-.065a4.2,4.2,0,0,1-.392-1.7h0a3.677,3.677,0,0,1,1.892-3.138h0a3.623,3.623,0,0,1,4.833,1.507h-.065a3.3,3.3,0,0,1,.457,1.7h0a3.8,3.8,0,0,1-1.892,3.138h0a3.735,3.735,0,0,1-1.634.393h0A3.5,3.5,0,0,1,446.417,96.05ZM253.112,85.721a3.547,3.547,0,0,1-1.57-2.944h0a3.7,3.7,0,0,1,.656-1.959h0a3.561,3.561,0,0,1,4.962-.915h0a3.561,3.561,0,0,1,1.506,2.939h0a3.631,3.631,0,0,1-.592,1.965h0a3.54,3.54,0,0,1-2.935,1.566h0A3.4,3.4,0,0,1,253.112,85.721Zm182.075-6.927A3.476,3.476,0,0,1,434.4,76.5h0a3.441,3.441,0,0,1,1.371-2.745h0a3.6,3.6,0,0,1,4.962.587h0a3.435,3.435,0,0,1,.721,2.293h0a3.331,3.331,0,0,1-1.306,2.675h0a3.533,3.533,0,0,1-2.22.786h0A3.472,3.472,0,0,1,435.186,78.794Zm-169.01-9.807a3.514,3.514,0,0,1-.984-2.487h0a3.582,3.582,0,0,1,1.043-2.551h0a3.456,3.456,0,0,1,4.968.065h0a3.336,3.336,0,0,1,1.043,2.487h0a3.336,3.336,0,0,1-1.043,2.487h0a3.328,3.328,0,0,1-2.484,1.044h0A3.551,3.551,0,0,1,266.177,68.987Zm154.773-5.1h0a3.688,3.688,0,0,1-1.242-2.616h0a3.508,3.508,0,0,1,.914-2.422h0a3.512,3.512,0,0,1,4.962-.323h0a3.69,3.69,0,0,1,1.242,2.616h0a3.794,3.794,0,0,1-.85,2.417h0a3.618,3.618,0,0,1-2.677,1.179h0A3.477,3.477,0,0,1,420.95,63.884ZM282.176,54.928a3.631,3.631,0,0,1-.592-1.965h0a3.488,3.488,0,0,1,1.5-2.939h0a3.622,3.622,0,0,1,4.968.915h0a3.819,3.819,0,0,1,.586,2.024h0a3.557,3.557,0,0,1-1.564,2.944h0a3.614,3.614,0,0,1-1.963.587h0A3.54,3.54,0,0,1,282.176,54.928Zm122.053-3.073a3.4,3.4,0,0,1-1.764-3.009h0a3.783,3.783,0,0,1,.457-1.83h0a3.531,3.531,0,0,1,4.9-1.243h-.064a3.461,3.461,0,0,1,1.763,3.009h0a3.182,3.182,0,0,1-.457,1.83h0a3.559,3.559,0,0,1-3.07,1.765h0A3.485,3.485,0,0,1,404.229,51.855ZM300.461,44.136a5.034,5.034,0,0,1-.328-1.373h0a3.46,3.46,0,0,1,2.156-3.267h0a3.538,3.538,0,0,1,4.7,1.83h0a3.364,3.364,0,0,1,.264,1.372h0a3.541,3.541,0,0,1-2.156,3.273h0a3.542,3.542,0,0,1-1.371.323h0A3.633,3.633,0,0,1,300.461,44.136Zm85.091-.915a3.576,3.576,0,0,1-2.349-3.332h0a3.763,3.763,0,0,1,.193-1.179h0a3.492,3.492,0,0,1,4.505-2.158h0a3.451,3.451,0,0,1,2.355,3.273h0a2.046,2.046,0,0,1-.2,1.243h0a3.573,3.573,0,0,1-3.328,2.352h0A3.762,3.762,0,0,1,385.552,43.221Zm-65.107-6.276a2.7,2.7,0,0,1-.07-.716h0a3.4,3.4,0,0,1,2.748-3.531h0a3.558,3.558,0,0,1,4.242,2.68h0a2.464,2.464,0,0,1,.064.716h0a3.554,3.554,0,0,1-2.742,3.531h0a2.967,2.967,0,0,1-.785.07h0A3.557,3.557,0,0,1,320.445,36.945Zm45.188,1.243a3.507,3.507,0,0,1-3.005-3.466h0V34.2h0a3.6,3.6,0,0,1,4.054-3.009h0a3.524,3.524,0,0,1,3,3.531h0a1.671,1.671,0,0,1-.065.528h0a3.505,3.505,0,0,1-3.462,3h0A1.3,1.3,0,0,1,365.633,38.188Zm-24.225-4.645v-.129h0a3.57,3.57,0,0,1,3.392-3.525h0a3.623,3.623,0,0,1,3.726,3.461h0v.194h0a3.631,3.631,0,0,1-3.462,3.472h-.129A3.543,3.543,0,0,1,341.407,33.543Z" transform="translate(-231.757 -29.887)" opacity="0.1" fill="url(#linear-gradient)" style="mix-blend-mode: hard-light;isolation: isolate"/>
    </g>
    <g transform="matrix(1, 0, 0, 1, 0, 0)" filter="url(#Path_14237)">
      <path id="Path_14237-2" data-name="Path 14237" d="M560.388,87a5.766,5.766,0,0,1-4.727,2.453,5.756,5.756,0,0,1-4.668-9.036,80.477,80.477,0,0,0,13.7-59.541c-.18-1.316-.419-2.573-.718-3.89-.06-.3-.12-.6-.179-.838a80.669,80.669,0,0,0-77.434-63.73,5.733,5.733,0,0,1-5.625-5.8,5.7,5.7,0,0,1,5.8-5.625,92.083,92.083,0,0,1,88.624,73.724,11.425,11.425,0,0,1,.359,1.975c.239,1.077.419,2.214.6,3.291v.12A91.618,91.618,0,0,1,560.388,87Z" transform="translate(-363.61 82.34)" fill="url(#linear-gradient-2)"/>
    </g>
    <path id="Path_14238" data-name="Path 14238" d="M560.388,87a5.766,5.766,0,0,1-4.727,2.453,5.756,5.756,0,0,1-4.668-9.036,80.477,80.477,0,0,0,13.7-59.541c-.18-1.316-.419-2.573-.718-3.89-.06-.3-.12-.6-.179-.838a80.669,80.669,0,0,0-77.434-63.73,5.733,5.733,0,0,1-5.625-5.8,5.7,5.7,0,0,1,5.8-5.625,92.083,92.083,0,0,1,88.624,73.724,11.425,11.425,0,0,1,.359,1.975c.239,1.077.419,2.214.6,3.291v.12A91.618,91.618,0,0,1,560.388,87Z" transform="translate(-363.614 82.343)" fill="url(#linear-gradient-2)"/>
  </g>
</svg>
