<svg xmlns="http://www.w3.org/2000/svg" xmlns:xlink="http://www.w3.org/1999/xlink" width="172.628" height="176.75" viewBox="0 0 172.628 176.75">
  <defs>
    <linearGradient id="linear-gradient" x1="1" y1="0.365" x2="0.5" y2="1" gradientUnits="objectBoundingBox">
      <stop offset="0" stop-color="#5fffc0"/>
      <stop offset="1" stop-color="#308060"/>
    </linearGradient>
    <filter id="Path_14235" x="20.944" y="20.944" width="130.74" height="134.862" filterUnits="userSpaceOnUse">
      <feOffset input="SourceAlpha"/>
      <feGaussianBlur stdDeviation="4.5" result="blur"/>
      <feFlood flood-color="#00ff9b"/>
      <feComposite operator="in" in2="blur"/>
      <feComposite in="SourceGraphic"/>
    </filter>
    <linearGradient id="linear-gradient-3" x1="1.11" y1="0.322" x2="0.979" y2="0.898" xlink:href="#linear-gradient"/>
  </defs>
  <g id="Group_1773" data-name="Group 1773" transform="translate(19.36 32.86)">
    <g id="Group_1819" data-name="Group 1819" transform="translate(15.084 1.584)">
      <g id="Ellipse_122" data-name="Ellipse 122" transform="translate(0 13.068)" fill="none" stroke="#11225e" stroke-width="1">
        <ellipse cx="41.938" cy="43.463" rx="41.938" ry="43.463" stroke="none"/>
        <ellipse cx="41.938" cy="43.463" rx="41.438" ry="42.963" fill="none"/>
      </g>
      <g id="Group_1818" data-name="Group 1818" transform="matrix(0.839, -0.545, 0.545, 0.839, 0, 37.839)">
        <g id="Group_1817" data-name="Group 1817" transform="translate(0 0)">
          <g transform="matrix(0.84, 0.54, -0.54, 0.84, 10.48, -79.38)" filter="url(#Path_14235)">
            <path id="Path_14235-2" data-name="Path 14235" d="M.006,74.723a2.786,2.786,0,0,1,4.229-2.559,39.255,39.255,0,0,0,40.924-67,2.786,2.786,0,0,1,2.9-4.756A44.825,44.825,0,0,1,1.333,76.917,2.781,2.781,0,0,1,.006,74.723Z" transform="matrix(0.84, -0.54, 0.54, 0.84, 34.44, 72.28)" fill="url(#linear-gradient)"/>
          </g>
        </g>
      </g>
      <g id="Group_1822" data-name="Group 1822" transform="matrix(0.839, -0.545, 0.545, 0.839, 0, 37.839)">
        <g id="Group_1817-2" data-name="Group 1817" transform="translate(0 0)">
          <path id="Path_14235-3" data-name="Path 14235" d="M.006,74.723a2.786,2.786,0,0,1,4.229-2.559,39.255,39.255,0,0,0,40.924-67,2.786,2.786,0,0,1,2.9-4.756A44.825,44.825,0,0,1,1.333,76.917,2.781,2.781,0,0,1,.006,74.723Z" fill="url(#linear-gradient)"/>
        </g>
      </g>
    </g>
    <g id="Group_1820" data-name="Group 1820" transform="translate(0 0)" opacity="0.1" style="mix-blend-mode: hard-light;isolation: isolate">
      <path id="Path_14236" data-name="Path 14236" d="M292.332,144.613v-.1h0a1.748,1.748,0,0,1,1.624-1.786h0a1.774,1.774,0,0,1,1.88,1.655h0v.064h0a1.728,1.728,0,0,1-1.621,1.789h0a.212.212,0,0,1-.131.029h0A1.769,1.769,0,0,1,292.332,144.613Zm-8.985,1.431h0a1.732,1.732,0,0,1-1.557-1.754h0v-.2h0a1.757,1.757,0,0,1,1.944-1.559h0a1.737,1.737,0,0,1,1.557,1.786h0v.163h0a1.755,1.755,0,0,1-1.752,1.559h-.192Zm19.435-2.859a1.8,1.8,0,0,1-.067-.423h0a1.792,1.792,0,0,1,1.33-1.722h0a1.753,1.753,0,0,1,2.142,1.268h0a1.931,1.931,0,0,1,.064.423h0a1.8,1.8,0,0,1-1.3,1.719h0a2.371,2.371,0,0,1-.457.067h0A1.79,1.79,0,0,1,302.781,143.185ZM272.7,143.8a1.727,1.727,0,0,1-1.266-1.658h0a1.35,1.35,0,0,1,.1-.519h0a1.756,1.756,0,0,1,2.206-1.171h0a1.739,1.739,0,0,1,1.234,1.658h0a2.356,2.356,0,0,1-.067.519h0a1.786,1.786,0,0,1-1.685,1.268h0A1.345,1.345,0,0,1,272.7,143.8Zm40.1-3.966a1.487,1.487,0,0,1-.195-.746h0a1.7,1.7,0,0,1,1.007-1.591h0a1.738,1.738,0,0,1,2.334.813h0a1.711,1.711,0,0,1,.195.778h0a1.833,1.833,0,0,1-1,1.594h0a2.105,2.105,0,0,1-.748.16h0A1.7,1.7,0,0,1,312.805,139.837Zm-50.16-.2h0a1.81,1.81,0,0,1-.94-1.559h0a1.584,1.584,0,0,1,.224-.842h0a1.726,1.726,0,0,1,2.369-.717h0a1.734,1.734,0,0,1,.94,1.53h0a1.584,1.584,0,0,1-.224.842h0a1.736,1.736,0,0,1-1.557.941h0A1.837,1.837,0,0,1,262.645,139.641Zm59.343-4.968a1.784,1.784,0,0,1-.326-1.037h0a1.724,1.724,0,0,1,.716-1.431h0a1.76,1.76,0,0,1,2.462.39h0a1.7,1.7,0,0,1,.326,1.04h0a1.817,1.817,0,0,1-.713,1.428h0a1.794,1.794,0,0,1-1.039.326h0A1.723,1.723,0,0,1,321.989,134.673Zm-68.427-1.037a1.728,1.728,0,0,1-.649-1.367h0a1.455,1.455,0,0,1,.39-1.1h0a1.749,1.749,0,0,1,2.465-.259v-.032a1.783,1.783,0,0,1,.649,1.364h0a1.923,1.923,0,0,1-.39,1.136h0a1.723,1.723,0,0,1-1.362.65h0A1.774,1.774,0,0,1,253.561,133.636Zm76.5-5.749a1.88,1.88,0,0,1-.553-1.3h0a1.8,1.8,0,0,1,.489-1.2h0a1.75,1.75,0,0,1,2.5-.064h0a1.769,1.769,0,0,1,.553,1.3h0a1.646,1.646,0,0,1-.489,1.169h0a1.655,1.655,0,0,1-1.263.586h0A1.808,1.808,0,0,1,330.066,127.886Zm-84.326-1.821a1.626,1.626,0,0,1-.419-1.1h0a1.643,1.643,0,0,1,.614-1.364h0a1.719,1.719,0,0,1,2.465.2h0a1.569,1.569,0,0,1,.425,1.1h0a1.681,1.681,0,0,1-.62,1.364h0a1.632,1.632,0,0,1-1.132.423h0A1.722,1.722,0,0,1,245.74,126.065Zm91.044-6.364a1.73,1.73,0,0,1-.844-1.495h0a1.763,1.763,0,0,1,.291-.909h0a1.744,1.744,0,0,1,2.433-.554h0a1.774,1.774,0,0,1,.812,1.495h0a1.769,1.769,0,0,1-.259.909h0a1.766,1.766,0,0,1-1.493.845h0A1.677,1.677,0,0,1,336.784,119.7Zm-97.337-2.5h0a1.906,1.906,0,0,1-.227-.941h0a1.759,1.759,0,0,1,.876-1.495h0a1.755,1.755,0,0,1,2.4.65h0a2.163,2.163,0,0,1,.259.845h0a1.878,1.878,0,0,1-.908,1.591h0a2.059,2.059,0,0,1-.876.227h0A1.808,1.808,0,0,1,239.447,117.2Zm102.4-6.755a1.82,1.82,0,0,1-1.138-1.69h0a1.931,1.931,0,0,1,.131-.586h0a1.757,1.757,0,0,1,2.27-1.005h0a1.791,1.791,0,0,1,1.135,1.591h0a1.718,1.718,0,0,1-.128.682h0a1.748,1.748,0,0,1-1.656,1.136h0A1.411,1.411,0,0,1,341.845,110.443Zm-106.91-3.153a2.234,2.234,0,0,1-.1-.615h0a1.709,1.709,0,0,1,1.167-1.626h0a1.747,1.747,0,0,1,2.238,1.072h0a1.032,1.032,0,0,1,.1.618h0a1.736,1.736,0,0,1-1.167,1.623h0a1.788,1.788,0,0,1-.585.1h0A1.78,1.78,0,0,1,234.935,107.29Zm110.12-6.918a1.742,1.742,0,0,1-1.429-1.69h0a1.242,1.242,0,0,1,.035-.355h0a1.76,1.76,0,0,1,2.043-1.4h0a1.8,1.8,0,0,1,1.458,1.69h0c0,.131-.032.23-.032.358h0a1.764,1.764,0,0,1-1.72,1.431h0A1.235,1.235,0,0,1,345.056,100.372ZM232.342,96.7c0-.1-.032-.2-.032-.262h0a1.81,1.81,0,0,1,1.525-1.754h0a1.752,1.752,0,0,1,1.976,1.495h0a.757.757,0,0,1,.035.259h0a1.751,1.751,0,0,1-1.493,1.754h-.259A1.75,1.75,0,0,1,232.342,96.7ZM344.6,88.127a1.746,1.746,0,0,1,1.752-1.754h0a1.775,1.775,0,0,1,1.784,1.754h0a1.782,1.782,0,0,1-1.784,1.786h0A1.773,1.773,0,0,1,344.6,88.127Zm-111.157-.455a1.778,1.778,0,0,1-1.688-1.754h0v-.1h0a1.748,1.748,0,0,1,1.816-1.687h0a1.8,1.8,0,0,1,1.72,1.754h0v.1h0a1.785,1.785,0,0,1-1.784,1.69h-.064Zm110.834-5.426h0v-.2h0a1.786,1.786,0,0,1,1.589-1.754h0a1.794,1.794,0,0,1,1.944,1.562h0v.192h0a1.784,1.784,0,0,1-1.589,1.754h-.192A1.807,1.807,0,0,1,344.279,82.247Zm-109.762-5.1a1.766,1.766,0,0,1-1.362-1.754h0a1.335,1.335,0,0,1,.032-.356h0a1.8,1.8,0,0,1,2.107-1.335h0a1.809,1.809,0,0,1,1.394,1.786h0c-.029.1-.029.23-.064.358h0a1.767,1.767,0,0,1-1.717,1.367h0A1.632,1.632,0,0,1,234.516,77.147Zm107.748-4.936a1.5,1.5,0,0,1-.1-.522h0A1.844,1.844,0,0,1,343.435,70h0a1.794,1.794,0,0,1,2.206,1.2h0a2.578,2.578,0,0,1,.064.522h0a1.733,1.733,0,0,1-1.231,1.655h0a1.649,1.649,0,0,1-.521.1h0A1.766,1.766,0,0,1,342.265,72.211Zm-104.733-5.2a1.753,1.753,0,0,1-1.068-1.623h0a1.766,1.766,0,0,1,.16-.682h0a1.735,1.735,0,0,1,2.305-.909h0A1.753,1.753,0,0,1,240,65.421h0a1.641,1.641,0,0,1-.16.682h0a1.756,1.756,0,0,1-1.621,1.072h0A1.716,1.716,0,0,1,237.532,67.012ZM338.4,62.758h-.032a2.089,2.089,0,0,1-.195-.845h0a1.827,1.827,0,0,1,.94-1.559h0a1.8,1.8,0,0,1,2.4.749h-.032a1.638,1.638,0,0,1,.227.842h0a1.889,1.889,0,0,1-.94,1.559h0a1.855,1.855,0,0,1-.812.2h0A1.737,1.737,0,0,1,338.4,62.758Zm-96.038-5.132a1.762,1.762,0,0,1-.78-1.463h0a1.836,1.836,0,0,1,.326-.973h0a1.769,1.769,0,0,1,2.465-.455h0a1.769,1.769,0,0,1,.748,1.46h0a1.8,1.8,0,0,1-.294.976h0a1.759,1.759,0,0,1-1.458.778h0A1.69,1.69,0,0,1,242.366,57.626Zm90.459-3.441a1.727,1.727,0,0,1-.39-1.139h0a1.71,1.71,0,0,1,.681-1.364h0a1.786,1.786,0,0,1,2.465.291h0a1.707,1.707,0,0,1,.358,1.139h0a1.655,1.655,0,0,1-.649,1.329h0a1.755,1.755,0,0,1-1.1.39h0A1.725,1.725,0,0,1,332.825,54.185Zm-83.968-4.872a1.746,1.746,0,0,1-.489-1.236h0a1.779,1.779,0,0,1,.518-1.268h0a1.717,1.717,0,0,1,2.468.032h0a1.657,1.657,0,0,1,.518,1.236h0a1.657,1.657,0,0,1-.518,1.236h0a1.654,1.654,0,0,1-1.234.519h0A1.764,1.764,0,0,1,248.857,49.313Zm76.895-2.535h0a1.832,1.832,0,0,1-.617-1.3h0a1.743,1.743,0,0,1,.454-1.2h0a1.745,1.745,0,0,1,2.465-.16h0a1.833,1.833,0,0,1,.617,1.3h0a1.885,1.885,0,0,1-.422,1.2h0a1.8,1.8,0,0,1-1.33.586h0A1.727,1.727,0,0,1,325.752,46.777Zm-68.946-4.45a1.8,1.8,0,0,1-.294-.976h0a1.733,1.733,0,0,1,.745-1.46h0a1.8,1.8,0,0,1,2.468.455h0a1.9,1.9,0,0,1,.291,1.005h0a1.767,1.767,0,0,1-.777,1.463h0a1.8,1.8,0,0,1-.975.291h0A1.759,1.759,0,0,1,256.806,42.328ZM317.445,40.8a1.688,1.688,0,0,1-.876-1.495h0a1.879,1.879,0,0,1,.227-.909h0a1.755,1.755,0,0,1,2.433-.618H319.2a1.72,1.72,0,0,1,.876,1.495h0a1.581,1.581,0,0,1-.227.909h0a1.768,1.768,0,0,1-1.525.877h0A1.731,1.731,0,0,1,317.445,40.8Zm-51.554-3.835a2.5,2.5,0,0,1-.163-.682h0a1.719,1.719,0,0,1,1.071-1.623h0a1.758,1.758,0,0,1,2.334.909h0a1.671,1.671,0,0,1,.131.682h0a1.759,1.759,0,0,1-1.071,1.626h0a1.76,1.76,0,0,1-.681.16h0A1.805,1.805,0,0,1,265.891,36.966Zm42.275-.455A1.777,1.777,0,0,1,307,34.856h0a1.87,1.87,0,0,1,.1-.586h0a1.735,1.735,0,0,1,2.238-1.072h0a1.714,1.714,0,0,1,1.17,1.626h0a1.016,1.016,0,0,1-.1.618h0a1.775,1.775,0,0,1-1.653,1.169h0A1.869,1.869,0,0,1,308.166,36.511Zm-32.346-3.118a1.343,1.343,0,0,1-.035-.356h0a1.692,1.692,0,0,1,1.365-1.754h0a1.768,1.768,0,0,1,2.107,1.332h0a1.224,1.224,0,0,1,.032.356h0a1.766,1.766,0,0,1-1.362,1.754h0a1.474,1.474,0,0,1-.39.035h0A1.767,1.767,0,0,1,275.819,33.393Zm22.45.618a1.743,1.743,0,0,1-1.493-1.722h0V32.03h0a1.789,1.789,0,0,1,2.014-1.495h0a1.751,1.751,0,0,1,1.49,1.754h0a.831.831,0,0,1-.032.262h0a1.741,1.741,0,0,1-1.72,1.492h0A.645.645,0,0,1,298.269,34.011ZM286.234,31.7v-.064h0a1.774,1.774,0,0,1,1.685-1.751h0a1.8,1.8,0,0,1,1.851,1.719h0v.1h0a1.8,1.8,0,0,1-1.72,1.725h-.064A1.76,1.76,0,0,1,286.234,31.7Z" transform="translate(-231.757 -29.887)" fill="url(#linear-gradient-3)" style="mix-blend-mode: overlay;isolation: isolate"/>
    </g>
  </g>
</svg>
