<svg id="Group_6124" data-name="Group 6124" xmlns="http://www.w3.org/2000/svg" width="284.595" height="536.291" viewBox="0 0 284.595 536.291">
  <path id="Path_14321" data-name="Path 14321" d="M-884.03,2116.982l1.437,19.871-6.225,17-7.469,22.417Z" transform="translate(1107.301 -1650.986)" fill="#ae2358"/>
  <path id="Path_14322" data-name="Path 14322" d="M-823.362,1654.853l18.2-7.342-8.422,66.725-10.093,6.056Z" transform="translate(1062.514 -1361.393)" fill="#ae2358"/>
  <g id="Group_1835" data-name="Group 1835" transform="translate(0 236.541)">
    <path id="Path_14323" data-name="Path 14323" d="M-1363.948,1590.336c-2.738,3.343-5.835,7.866-5.994,9.92s-.75,11.132.92,12.307,5.414.869,7.131-1.178.79-7.364,1.383-8.8,5.242-6.436,5.242-6.436Z" transform="translate(1399.618 -1562.666)" fill="#f57e53"/>
    <path id="Path_14324" data-name="Path 14324" d="M-1426.292,1538.683c-4.852,2.5-12.162,8.437-13.6,10.491s-7.984,11.87-7.03,13.641,3.711,4.265,6.723,2.746,6.89-9.534,8.382-10.8,9.313-4.83,9.313-4.83Z" transform="translate(1447.021 -1530.804)" fill="#f57e53"/>
    <path id="Path_14325" data-name="Path 14325" d="M-1402.578,1568.726c-3.565,3.737-7.755,8.806-8.353,11.13s-3.135,13.333-1.637,14.7,4.906,2.868,7.131.58,2.955-10.848,3.876-12.458,6.834-7.2,6.834-7.2Z" transform="translate(1426.056 -1549.336)" fill="#f57e53"/>
    <path id="Path_14326" data-name="Path 14326" d="M-1356.093,1518.119c-13.419.285-33.426,2.516-37.006,4.76-6.617,4.147-.52,16.477-.13,16.5,1.136.054,13.041,15.009,17.842,14.354s16.955-12.346,25.235-12.306Z" transform="translate(1415.65 -1518.119)" fill="#fca66d"/>
    <path id="Path_14327" data-name="Path 14327" d="M-1388.756,1555.867a.718.718,0,0,0-.156.024c3.93-8.925,15.82-13.313,27.718-9.854a26.844,26.844,0,0,1,15.31,11.075l.2.8c-8.281-.039-20.82,13.013-25.62,13.668S-1387.619,1555.921-1388.756,1555.867Z" transform="translate(1411.176 -1534.611)" fill="#f57e53"/>
    <path id="Path_14328" data-name="Path 14328" d="M-1403.015,1533.026c-.545,5.221,1.366,16.379,2.517,18.6s6.87,12.559,9.246,12.69,6.61-.832,6.983-4.056-5.347-11.5-5.678-13.361c-.725-8.984,11.168-14.832,6.142-19.7C-1389.255,1521.92-1399.921,1527.114-1403.015,1533.026Z" transform="translate(1419.935 -1522.37)" fill="#fca66d"/>
    <path id="Path_14329" data-name="Path 14329" d="M-1361.192,1636.05c1.514-1.533,3.491-6.307,1.921-7.8s-7.635-2.321-8.57-.483a11.893,11.893,0,0,0-.784,7.071C-1368.093,1636.615-1362.168,1637.039-1361.192,1636.05Z" transform="translate(1398.812 -1585.106)" fill="#fca66d"/>
  </g>
  <path id="Path_14330" data-name="Path 14330" d="M-1105.3,1219.066s-34.752,59.307-52.468,97.613c.638,10.534,9.374,54.653,9.374,54.653s35.433-19.153,43.094-33.518S-1085.668,1204.222-1105.3,1219.066Z" transform="translate(1268.595 -1096.32)" fill="#161515"/>
  <path id="Path_14331" data-name="Path 14331" d="M-1245.812,1450.847c-22.026,7.661-75.318,22.067-75.318,22.067l13.114,44.582s40.381-3.671,58.1-8.778S-1236.461,1447.594-1245.812,1450.847Z" transform="translate(1369.365 -1239.997)" fill="#161515"/>
  <path id="Path_14332" data-name="Path 14332" d="M-1248.253,1514.144c22.116-12.639,24.472,33.541,6.755,38.648s-58.852,2.487-58.852,2.487l-8.353-28.395C-1295.8,1526.7-1261.14,1521.508-1248.253,1514.144Z" transform="translate(1361.7 -1277.78)" fill="#0b0b0b"/>
  <path id="Path_14333" data-name="Path 14333" d="M-1134.719,1304.008c8.991-19.6,13.347-37.99,11.941-47.67,11.624-21,21.16-37.272,21.16-37.272,19.632-14.844,7.662,104.383,0,118.748s-43.094,33.518-43.094,33.518-4.3-21.725-7.088-38.326A150.58,150.58,0,0,0-1134.719,1304.008Z" transform="translate(1264.915 -1096.32)" fill="#0b0b0b"/>
  <path id="Path_14334" data-name="Path 14334" d="M-1079.6,917.846c3.83-5.427,23.984-15.708,29.729-16.985s43.413,9.9,47.882,15.642,37.306,47.31,37.306,52.737-19.472,33.2-19.472,33.2l-92.076,72.584C-1075.6,1012.136-1083.434,923.273-1079.6,917.846Z" transform="translate(1221.033 -900.76)" fill="#161515"/>
  <path id="Path_14335" data-name="Path 14335" d="M-1076.611,988.679c-.59,1.518-1.14,3.03-1.676,4.539-1.741-39.31-3.6-72.14-1.317-75.372,3.83-5.427,23.984-15.708,29.729-16.985,5.293-1.176,37.655,8.209,46.219,14.188C-1030.322,919.276-1060.5,947.189-1076.611,988.679Z" transform="translate(1221.033 -900.76)" fill="#282828"/>
  <path id="Path_14336" data-name="Path 14336" d="M-1094.431,1701.7c10.16,62.37,22.33,137.03,20.227,167.176l1.756.319c21.707-67.035,37.391-244.745,37.391-244.745l-29.312-7.2c1.106-2.187,1.706-3.364,1.706-3.364l-77.211-9.455s-38.493,185.789-39.414,260.1l1.756.98c7.287-30.436,38.865-102.93,67.141-161.9Z" transform="translate(1281.871 -1334.818)" fill="#d04072"/>
  <g id="Group_1836" data-name="Group 1836" transform="translate(102.582 390.369)">
    <path id="Path_14337" data-name="Path 14337" d="M-940.435,1937.415A224.89,224.89,0,0,0-898.72,1919.6c-6.6,51.988-15.777,111.226-26.392,144.005l-1.756-.319C-925.215,2039.613-932.367,1988.484-940.435,1937.415Z" transform="translate(1031.952 -1919.601)" fill="#c8366e"/>
    <path id="Path_14338" data-name="Path 14338" d="M-1133.114,1990.743c-20.62,45.693-39.069,90.715-44.419,113.063l-1.756-.98c.337-27.16,5.695-69.211,12.355-111.641A185.78,185.78,0,0,0-1133.114,1990.743Z" transform="translate(1179.289 -1963.485)" fill="#c8366e"/>
  </g>
  <path id="Path_14339" data-name="Path 14339" d="M-1014.227,1708.955l-7.661,37.109-7.661.718-.958-36.391Z" transform="translate(1190.094 -1399.295)" fill="#ae2358"/>
  <path id="Path_14340" data-name="Path 14340" d="M-1178.511,1846.573c17.709-36.589,40.155-96.618,54.073-139.609,1.137-3.514,2.045-6.821,2.784-9.976a83.635,83.635,0,0,0,10.145.4,110.071,110.071,0,0,0,21.571-2.679c.607,45.528,14.322,124.3,21.044,124.3,6.875,0,19.829-74.633,17.876-119.546-2.553-58.735-58.736-36.71-96.275-57.681,4.385-22.708,7.418-37.354,7.418-37.354l77.211,9.455s-.6,1.177-1.706,3.364l33.419,6.468s-19.791,178.442-41.5,245.477l-1.756-.319c2.1-30.145-12.885-103.781-23.046-166.151l-10.833,3.3c-28.276,58.966-62.165,129.046-69.451,159.481l-1.756-.98C-1179.221,1859.1-1178.949,1853.07-1178.511,1846.573Z" transform="translate(1281.871 -1334.818)" fill="#ae2358"/>
  <path id="Path_14341" data-name="Path 14341" d="M-985.708,1335.888s-97.68,64.642-150.511.479c0,0,33.2-147.477,40.381-158.012s69.908-37.827,82.357-27.292S-977.568,1304.765-985.708,1335.888Z" transform="translate(1255.302 -1053.694)" fill="#161515"/>
  <path id="Path_14342" data-name="Path 14342" d="M-1097.63,1354.386c96.767,0,89.566-181.63,78.376-205.1a11.133,11.133,0,0,1,5.775,2.146c12.449,10.534,35.911,153.7,27.772,184.826,0,0-97.68,64.641-150.511.479l.164-.728C-1125.3,1347.552-1112.013,1354.386-1097.63,1354.386Z" transform="translate(1255.302 -1054.063)" fill="#0b0b0b"/>
  <path id="Path_14343" data-name="Path 14343" d="M-1098.539,1409.754c2.62-11.02,5.389-22.494,8.12-33.53,8.643,17.182,19.3,35.074,19.3,35.074,18.833-4.53,74.868-30.064,102.041-42.7,2.488,15.6,4.618,31.668,6.1,46.521-51.818,20.877-114.521,23.317-114.521,23.317C-1085.021,1432.127-1092.272,1421.262-1098.539,1409.754Z" transform="translate(1232.06 -1189.343)" fill="#ffe9b6" opacity="0.42" style="mix-blend-mode: overlay;isolation: isolate"/>
  <path id="Path_14344" data-name="Path 14344" d="M-845.59,1246.286c24.491-8.407,27.486-98.4-25.856-91.934-15.8,1.916-33.039,35.912-34.475,54.586S-870.489,1254.833-845.59,1246.286Z" transform="translate(1113.269 -1056.983)" fill="#161515"/>
  <g id="Group_1837" data-name="Group 1837" transform="translate(177.869 78.017)">
    <path id="Path_14345" data-name="Path 14345" d="M-982.792,1191.446c32.871-23.631,44.922-57.486,45.162-78.315l29.125-8.75c-3.121,5.469-7.381,12.008-10.611,16.825a39.937,39.937,0,0,1,13.425.978c-17.476,3.871-31.647,18.891-39.6,36.436C-952.771,1175.121-970.37,1185.221-982.792,1191.446Z" transform="translate(982.792 -1104.381)" fill="#0b0b0b"/>
  </g>
  <path id="Path_14346" data-name="Path 14346" d="M-831.358,1152.652c1.977-1.14.98-4.063,2.941-4.336,57.1-7.968,53.338,85.749,28.847,94.156a32.909,32.909,0,0,1-13.549,1.45C-791.762,1232.668-789.016,1157.167-831.358,1152.652Z" transform="translate(1067.249 -1053.169)" fill="#0b0b0b"/>
  <path id="Path_14347" data-name="Path 14347" d="M-919.593,1328.117c8.6,4.3,19.03,2,28.729-3.352,15.411-8.5,27.919-24.277,20.866-41.91-11.491-28.729-67.035-25.378-84.752-8.619S-933,1321.413-919.593,1328.117Z" transform="translate(1146.136 -1123.239)" fill="#282828"/>
  <path id="Path_14348" data-name="Path 14348" d="M-928.535,1323.361c19.022,9.511,50.167-10.309,51.656-34.2a27.493,27.493,0,0,1,7.341,10.322c11.492,28.73-27.4,57.755-49.66,46.626-11.559-5.78-42.406-30.193-39.348-47.555C-949.205,1309.817-935.434,1319.911-928.535,1323.361Z" transform="translate(1145.836 -1140.343)" fill="#0b0b0b"/>
  <path id="Path_14349" data-name="Path 14349" d="M-925.287,1329.011c-11.737-14.65-15.776-33.052-4.655-39.117,10.988-5.993,33.614,1.917,46.193,15.625,13.281,14.474,15.125,32.392,3.292,39.355C-892.449,1351.93-912.879,1344.5-925.287,1329.011Z" transform="translate(1132.1 -1139.547)" fill="#030504"/>
  <path id="Path_14350" data-name="Path 14350" d="M-1238.741,2284.231h26.136s2.614-10.283-2.352-10.069S-1238.741,2284.231-1238.741,2284.231Z" transform="translate(1318.544 -1747.941)" fill="#f6eaa4"/>
  <path id="Path_14351" data-name="Path 14351" d="M-895.438,2281.17h-18.325s.984-12.185,4.466-11.971S-895.438,2281.17-895.438,2281.17Z" transform="translate(1118.081 -1744.88)" fill="#f6eaa4"/>
  <path id="Path_14352" data-name="Path 14352" d="M-999.678,1005.589c3.374-28.382-43.414-94.168-45.329-96.4s-22.983,13.727-24.9,18.2,9.9,106.3,9.9,106.3,6.384,41.179,9.257,40.221S-1002.668,1030.74-999.678,1005.589Z" transform="translate(1214.527 -905.826)" fill="#0b0b0b"/>
  <path id="Path_14353" data-name="Path 14353" d="M-980.6,1204.284l-23.941,3.272s-21.707,18.434-14.684,43.652C-1019.221,1251.208-982.51,1216.733-980.6,1204.284Z" transform="translate(1183.995 -1087.989)" fill="#282828"/>
  <path id="Path_14354" data-name="Path 14354" d="M-904.228,1345.974c.237,4.485-8.851,6.385-13.1,3.49s-13.239-10.561-12.583-13.292,6.782-13.241,9.2-11.292S-904.4,1342.69-904.228,1345.974Z" transform="translate(1128.06 -1162.23)" fill="#f57e53"/>
  <path id="Path_14355" data-name="Path 14355" d="M-851.61,1408.879c2.192,3.276-2.27,10.957-6.086,11.645s-12.6.967-13.467-1.575-2.083-14.8.229-14.96S-853.215,1406.481-851.61,1408.879Z" transform="translate(1092.484 -1211.172)" fill="#f57e53"/>
  <path id="Path_14356" data-name="Path 14356" d="M-938.254,1310.473c.092,6.7-7.2,20.245-12.819,33.215-5.358,12.372-10.108,23.69-12.6,24.469-5.107,1.6-13.088-2.234-13.407-7.661s11.849-30.453,12.651-34.861c.319-1.756-4.309-4.629-5.746-3.512-3.157,2.456-25.857,23.782-29.687,23.144s-9.9-12.29-8.938-14.206c.493-.984,11.11-10.052,21.388-19.632,9.709-9.049,18.984-18.653,23.5-19.086C-960.4,1292.008-938.315,1306-938.254,1310.473Z" transform="translate(1176.767 -1142.305)" fill="#fca66d"/>
  <path id="Path_14357" data-name="Path 14357" d="M-833.963,1351.834c.154,8.373-8.235,21.637-12.415,22.147s-13.007-1.387-12.3-7.642,6.375-33.586,8.756-33.338C-842.262,1333.8-834.076,1345.706-833.963,1351.834Z" transform="translate(1084.128 -1167.386)" fill="#fca66d"/>
  <path id="Path_14358" data-name="Path 14358" d="M-979.716,1305.24c-8.95,1.859-24.779,3.352-33.4-2.514-2.312-1.573-.864-13.831,5.536-11.619,11.1,3.838,39.372-1.2,41.171.381C-961.51,1295.786-973.164,1303.879-979.716,1305.24Z" transform="translate(1180.004 -1141.382)" fill="#fca66d"/>
  <path id="Path_14359" data-name="Path 14359" d="M-1088.983,993.769c-11.491-20.27-21.547-24.739-32.879-19.951s-15.96-13.407-13.567-18.514c0,0,5.267,16.12,13.407,11.492s8.459-13.726,17.238-12.768,12.769-7.023,18.833-7.182,16.28,24.42,16.28,24.42Z" transform="translate(1255.194 -929.187)" fill="#cf2975"/>
  <path id="Path_14360" data-name="Path 14360" d="M-1071.558,968.146a35.03,35.03,0,0,0,6.657-14.089c7.23-.49,11.039-7.067,16.549-7.212,6.065-.16,16.28,24.42,16.28,24.42l-19.313,22.5c-8.31-14.659-15.871-21.022-23.706-21.629A38.921,38.921,0,0,0-1071.558,968.146Z" transform="translate(1217.596 -929.187)" fill="#9b2053"/>
  <path id="Path_14361" data-name="Path 14361" d="M-977.78,1047.16s-14.6,21.068-36.151,13.647c0,0-23.223-58.417-6.943-73.739,7.455-7.017,17.091,1.834,25.378,16.918C-985.687,1021.841-977.78,1047.16-977.78,1047.16Z" transform="translate(1187.724 -952.492)" fill="#f57e53"/>
  <path id="Path_14362" data-name="Path 14362" d="M-987.081,1025.181c-13.286-8.653-27.665-12.282-39.09-10.9-1.233-11.428-.337-21.905,5.3-27.211,7.455-7.017,17.091,1.834,25.378,16.918a205.139,205.139,0,0,1,10.3,22.466Q-986.125,1025.807-987.081,1025.181Z" transform="translate(1187.719 -952.492)" fill="#e36445"/>
  <path id="Path_14363" data-name="Path 14363" d="M-1008.853,1791.435s-48.174,20.32-73.1,9.651c0,0,14.031,18.948,29.548,17.873C-1033.515,1817.651-1008.853,1791.435-1008.853,1791.435Z" transform="translate(1221.829 -1450.173)" fill="#ae2358"/>
  <path id="Path_14364" data-name="Path 14364" d="M-996.817,1063.876c.6,9.409.847,23.6,1.624,24.937.632,1.083,7.382-.419,10.668-1.223.292.617.464.984.464.984s-11.612,3.112-12.449,1.676-.661-17.267-1.437-26.575C-998.049,1062.435-997.8,1062.4-996.817,1063.876Z" transform="translate(1170.022 -1000.688)" fill="#712225" opacity="0.6" style="mix-blend-mode: multiply;isolation: isolate"/>
  <path id="Path_14365" data-name="Path 14365" d="M-1013.638,1069c-.938-2.464-.679-4.849.579-5.328s3.039,1.129,3.978,3.593.678,4.85-.579,5.329S-1012.7,1071.46-1013.638,1069Z" transform="translate(1180.036 -1001.198)" fill="#412533"/>
  <path id="Path_14366" data-name="Path 14366" d="M-972.787,1071.687c-1.16-2.368-.925-4.863.526-5.573s3.567.633,4.726,3,.924,4.863-.526,5.573S-971.627,1074.055-972.787,1071.687Z" transform="translate(1154.944 -1002.642)" fill="#412533"/>
  <path id="Path_14367" data-name="Path 14367" d="M-988.272,1140.382l-1,.086c3.112-2.633,20.829-6.145,24.021-2.075l-1.476.128C-971.912,1136.452-984.4,1138.354-988.272,1140.382Z" transform="translate(1164.656 -1046.199)" fill="#712225" opacity="0.6" style="mix-blend-mode: multiply;isolation: isolate"/>
  <path id="Path_14368" data-name="Path 14368" d="M-972.33,1146.734c-.041-.351.848-1.077,2.927-1.323s4.561.083,4.6.433-2.284-.04-4.363.205S-972.288,1147.083-972.33,1146.734Z" transform="translate(1154.209 -1051.621)" fill="#e36445"/>
  <path id="Path_14369" data-name="Path 14369" d="M-1039.436,1074.723a3.4,3.4,0,0,0,.064.491c.358,1.77,2.745,11.407,11.638,7.54,5.793-2.518,5.143-6.246,8.037-7.49s7.035,1.732,12.819.059c2.692-.779,6.6-4.161,5.8-11.082a32.26,32.26,0,0,0-2.4-7.764,3.364,3.364,0,0,0-3.314-2.038c-3.754.238-11.171.854-15.821,2.2-5.7,1.648-12.629,6.517-15.416,8.589a3.357,3.357,0,0,0-1.35,2.511A68.12,68.12,0,0,0-1039.436,1074.723Z" transform="translate(1195.643 -995.553)" fill="#0b0b0b"/>
  <path id="Path_14370" data-name="Path 14370" d="M-998.445,1041.992a8.172,8.172,0,0,1-4.577-6.242c-.036-1.56,9.456-13.035,11.908-11.823s7.162,7.221,5.857,9.188S-997.275,1042.535-998.445,1041.992Z" transform="translate(1173.14 -976.68)" fill="#9b2053"/>
  <path id="Path_14371" data-name="Path 14371" d="M-1025.773,1057.362c2.611,3.173,3.017,4.926,2.075,6.311-.924,1.358-13.535,3.652-13.965,1.362-.373-1.987.036-6.885.974-7.422C-1035.667,1057.03-1026.6,1056.361-1025.773,1057.362Z" transform="translate(1194.593 -997.043)" fill="#9b2053"/>
</svg>
