<svg xmlns="http://www.w3.org/2000/svg" xmlns:xlink="http://www.w3.org/1999/xlink" width="236.252" height="564.814" viewBox="0 0 236.252 564.814">
  <defs>
    <filter id="Path_14555" x="103.102" y="0" width="87.567" height="78.898" filterUnits="userSpaceOnUse">
      <feOffset dy="-10" input="SourceAlpha"/>
      <feGaussianBlur stdDeviation="10" result="blur"/>
      <feFlood flood-color="#e3fc62" flood-opacity="0.102"/>
      <feComposite operator="in" in2="blur"/>
      <feComposite in="SourceGraphic"/>
    </filter>
  </defs>
  <g id="Group_6123" data-name="Group 6123" transform="translate(0 3.688)">
    <path id="Path_14530" data-name="Path 14530" d="M2501.065,1613.684c-22.539-12.207,49.569-76.46,41.732-4.031s-7.372,76.618-3.293,94.331c3.293,14.3,19.946,3.65,19.946,3.65s-5.23,24.056-20.638,21.175c-10.426-1.95-15.686-12.14-17.037-23.544-1.149-9.7-5.011.852-5.011.852Z" transform="translate(-2357.422 -1575.741)" fill="#ce461a"/>
    <path id="Path_14531" data-name="Path 14531" d="M2553.39,1704.268s2.215-75.2-12.365-68.946c-16.535,7.094-12.965,17.053-12.965,17.053s-.519,1.828,1.973,1.316c2.921-.6,5.637-6.718,9.254-5.262C2550.555,1652.966,2553.39,1704.268,2553.39,1704.268Z" transform="translate(-2377.048 -1613.164)" fill="#b22f1b"/>
    <g id="Group_1859" data-name="Group 1859" transform="translate(0 36.312)">
      <path id="Path_14532" data-name="Path 14532" d="M2406.3,2011.073c-15.712-9.482-18.4-42.464-2.277-51.422,9.66-5.369,43.27,1.242,58.72,10.127C2496.185,1989.007,2449.044,2036.869,2406.3,2011.073Z" transform="translate(-2291.993 -1853.469)" fill="#454091"/>
      <path id="Path_14533" data-name="Path 14533" d="M2437.617,1989.687c-13.355-8.06-25.933-12.88-12.232-20.495,8.21-4.564,36.781,1.057,49.913,8.609C2503.72,1994.146,2473.946,2011.614,2437.617,1989.687Z" transform="translate(-2308.616 -1859.682)" fill="#403148"/>
      <path id="Path_14534" data-name="Path 14534" d="M2287.965,2090.945c6.313-32.794,43.92-80.59,50.327-83.288s15.2,39.25.022,63.19S2277.2,2146.886,2287.965,2090.945Z" transform="translate(-2224.488 -1884.952)" fill="#57639f"/>
      <path id="Path_14535" data-name="Path 14535" d="M2343.365,2020.381c.739,12-.825,25.118-6.97,34.814-10.025,15.816-35.2,42.663-48.037,42.937-.065.308-.145.626-.2.932-10.769,55.941,39.137,6.71,54.311-17.231C2354.233,2063.265,2349.2,2032.157,2343.365,2020.381Z" transform="translate(-2224.676 -1893.072)" fill="#454091"/>
      <path id="Path_14536" data-name="Path 14536" d="M2306.115,2217.556c0-9.334-3.01-15.777-6.574-15.017-3.411.728-6.413,7.9-6.861,16.548-.48,9.271,2.092,17.287,5.945,17.287C2302.675,2236.375,2306.115,2227.621,2306.115,2217.556Z" transform="translate(-2228.454 -2008.16)" fill="#403148"/>
      <path id="Path_14537" data-name="Path 14537" d="M2579.95,2027.449c-26.829-20.234-84.572-47.945-91.868-45.541s20.815,56.05,46.031,71.134C2571.879,2075.635,2602.163,2044.2,2579.95,2027.449Z" transform="translate(-2351.245 -1868.664)" fill="#57639f"/>
      <path id="Path_14538" data-name="Path 14538" d="M2537.741,2036.52c-22.01-12.083-30.055-32.311-24.886-41.727a9.339,9.339,0,0,1,3.491-3.455c-14.128-6.425-25.387-10.4-28.347-9.429-7.3,2.4,19.445,59.793,44.661,74.877,27.907,16.694,52.448,1.845,54.414-13.8C2577.949,2046.558,2555.052,2046.023,2537.741,2036.52Z" transform="translate(-2351.164 -1868.664)" fill="#454091"/>
      <path id="Path_14539" data-name="Path 14539" d="M2672.718,2148.045c9.97-4.694,14.968-11.939,11.924-16.3-2.915-4.174-12.452-4.564-21.973-.811-10.2,4.022-17.153,11.476-14.74,16.6C2650.465,2152.928,2661.969,2153.1,2672.718,2148.045Z" transform="translate(-2452.708 -1961.309)" fill="#403148"/>
      <path id="Path_14540" data-name="Path 14540" d="M2239.786,2353.495l-59.918,261.916h2.7l110.6-275.828Z" transform="translate(-2157.191 -2094.812)" fill="#fca66d"/>
      <path id="Path_14541" data-name="Path 14541" d="M2324.059,2474.28l54.01-134.7-53.38,13.911-10.484,45.829C2324.905,2404.239,2328.2,2433.745,2324.059,2474.28Z" transform="translate(-2242.094 -2094.813)" fill="#f57e53"/>
      <path id="Path_14542" data-name="Path 14542" d="M2357.1,2403.988l22.593-64.405-53.812,10.88-9.106,32.471Z" transform="translate(-2243.72 -2094.812)" fill="#333148"/>
      <path id="Path_14543" data-name="Path 14543" d="M2464.641,2304.712l15.2,285.652h3.082l34.057-254.584-17.956-35.828Z" transform="translate(-2337.172 -2069.765)" fill="#fca66d"/>
      <path id="Path_14544" data-name="Path 14544" d="M2498.845,2388.889c3.614.216,6.762,4.824,9.323,12.788l8.815-65.9-17.956-35.827-34.385,4.759,8.484,159.426C2478.892,2419.728,2489.092,2388.308,2498.845,2388.889Z" transform="translate(-2337.173 -2069.765)" fill="#f57e53"/>
      <path id="Path_14545" data-name="Path 14545" d="M2514.286,2369.974l4.721-38.778-14.668-37.429-39.7,7.036,2.437,76.252Z" transform="translate(-2337.173 -2065.855)" fill="#333148"/>
      <rect id="Rectangle_2142" data-name="Rectangle 2142" width="39.958" height="50.074" transform="translate(104.11 242.073)" fill="#333148"/>
      <path id="Path_14546" data-name="Path 14546" d="M2330.605,2131.865c16.269,11.759,83.625,21.665,107.229,13.909-4.3-45.268-26.554-62.212-27.313-70.052-2.771-28.639,14.245-33.411,13.4-38.693-4.3-27.04-7.393-30.541-15.427-45.522-9.357-17.45-34.336-11.88-43.919-.337-3.088,3.719-13.994,35.49-13.741,49.4,2.075,2.652,10.706,12.223,13.994,16.017C2363.482,2073.446,2344.767,2082.549,2330.605,2131.865Z" transform="translate(-2252.459 -1867.79)" fill="#57639f"/>
      <path id="Path_14547" data-name="Path 14547" d="M2333.5,2234.149c5.439-30.32,26.468-61.2,50.216-61.2,27.316,0,47.966,40.861,48.421,74.725a43.2,43.2,0,0,0,5.7-1.384c-4.3-45.269-25.268-62.5-26.027-70.341-2.447-25.291,9.243-31.68,11.733-36.534a87.273,87.273,0,0,1-29.154,8.2c-15.873,1.718-30.95-.506-42.718-5.511,2.946,3.523,8.374,11.724,11.33,15.135-1.349,16.86-18.231,25.829-32.393,75.145A27.277,27.277,0,0,0,2333.5,2234.149Z" transform="translate(-2252.459 -1968.3)" fill="#454091"/>
      <path id="Path_14548" data-name="Path 14548" d="M2199.17,2079.4c5.4,16.523,31.823,67.313,38.9,64.953s3.9-19.4,3.9-19.4l-41.476-46.534Z" transform="translate(-2169.391 -1929.758)" fill="#fca66d"/>
      <path id="Path_14549" data-name="Path 14549" d="M2241.973,2126.207l-.727-.815c.161,4.916-.535,9.844-3.68,11.187-5.824,2.485-27.836-35.016-38.054-56.18l-.341.252c5.4,16.522,32.012,69.834,39.093,67.473S2241.973,2126.207,2241.973,2126.207Z" transform="translate(-2169.391 -1931.005)" fill="#f57e53"/>
      <path id="Path_14550" data-name="Path 14550" d="M2585.157,2191.484c14.251-8.128,62.121-46.769,58.311-53.985-3.8-7.2-20.573,1.36-20.573,1.36l-40.328,52.076Z" transform="translate(-2411.703 -1965.271)" fill="#fca66d"/>
      <path id="Path_14551" data-name="Path 14551" d="M2646.944,2137.508c-2-3.783-7.569-3.206-12.414-1.815a5.4,5.4,0,0,1,4.214,2.617c3.56,6.418-50.677,53.063-50.677,53.063l.567.119C2602.884,2183.364,2650.753,2144.724,2646.944,2137.508Z" transform="translate(-2415.179 -1965.279)" fill="#f57e53"/>
      <path id="Path_14552" data-name="Path 14552" d="M2429.562,1987.767c7.675,8.032,43,35.45,60.051,6.241-9.3-6.281-18.742-13.026-24.979-12.014C2454.225,1975.556,2438.052,1980.137,2429.562,1987.767Z" transform="translate(-2315.001 -1866.877)" fill="#fca66d"/>
      <path id="Path_14553" data-name="Path 14553" d="M2470.223,1928.54c0-.93-1.406-30.068-1.406-30.068l18.275-10.849,4.232,38.256Z" transform="translate(-2339.811 -1809.167)" fill="#fca66d"/>
      <path id="Path_14554" data-name="Path 14554" d="M2427.243,1974.149c16.8-2.452,31.117-9.026,39.814-17.279-.252-.129-.505-.261-.756-.389-.849-5.42-4.315-10.516-11.117-14.427-5.2-2.989-12.449-5.717-20.152-7.821l-2.254-20.379a93.57,93.57,0,0,0-14.194.987c-1.733.253-3.439.554-5.116.891.1,2.03.4,8.337.7,14.6-7.685-.709-14.238-.332-17.7,1.595-8.981,4.992-12.119,17.441-10.424,29.128-1.544,1.917-3.175,4.028-4.85,6.262C2391.839,1973.93,2408.823,1976.838,2427.243,1974.149Z" transform="translate(-2283.865 -1826.476)" fill="#3a304e" opacity="0.6" style="mix-blend-mode: multiply;isolation: isolate"/>
      <g transform="matrix(1, 0, 0, 1, 0, -40)" filter="url(#Path_14555)">
        <path id="Path_14555-2" data-name="Path 14555" d="M2492.179,1693.267c-17.489-1.555-16.439-22.761,4.552-18.209.827.18,8.526,3.224,9.744,4.908C2510.815,1685.964,2500.715,1694.025,2492.179,1693.267Z" transform="translate(-2346.85 -1634.42)" fill="#b22f1b"/>
      </g>
      <path id="Path_14556" data-name="Path 14556" d="M2431.211,1803.6c-21.413-9.273-40.161-24.18-40.161-45.016,0-21.358,6.328-54.255,39.273-54.255,33.9,0,37.284,35.049,36.923,54.255C2466.893,1777.291,2452.6,1789.832,2431.211,1803.6Z" transform="translate(-2290.662 -1693.325)" fill="#ce461a"/>
      <path id="Path_14557" data-name="Path 14557" d="M2463.258,1769.61c-4.317,9.568-18.166,16.577-34.618,16.577-15.105,0-28.021-5.908-33.379-14.278-3.217,9.29-4.211,19.509-4.211,27.935,0,20.835,18.749,35.742,40.161,45.015,21.393-13.772,35.683-26.313,36.035-45.015C2467.4,1791.389,2466.835,1779.865,2463.258,1769.61Z" transform="translate(-2290.662 -1734.581)" fill="#b22f1b"/>
      <path id="Path_14558" data-name="Path 14558" d="M2449.67,1844.333c-19.221-6.912-30.215-18.717-30.215-35.3,0-17,2.015-43.187,28.6-43.187,27.354,0,26.962,27.9,26.7,43.188C2474.5,1823.918,2469.058,1835.9,2449.67,1844.333Z" transform="translate(-2308.614 -1732.2)" fill="#fca66d"/>
      <path id="Path_14559" data-name="Path 14559" d="M2484.3,1920.091a29.418,29.418,0,0,1,7.841.95.91.91,0,0,0,.087-.324c-.066-1.849-3.783-6.565-8.608-6.391s-8.933,5.172-8.866,7.021a.927.927,0,0,0,.093.275A24.867,24.867,0,0,1,2484.3,1920.091Z" transform="translate(-2343.566 -1826.04)" fill="#462627"/>
      <path id="Path_14560" data-name="Path 14560" d="M2487.341,1920.167a24.743,24.743,0,0,1,6.32.76c.006-.046.036-.078.034-.127-.051-1.414-2.894-5.022-6.585-4.89-3.564.128-6.587,3.677-6.748,5.2A23.715,23.715,0,0,1,2487.341,1920.167Z" transform="translate(-2347.107 -1827.043)" fill="#fff0d0"/>
      <path id="Path_14561" data-name="Path 14561" d="M2395.165,1880.268c-3.941,1.451-18.338-9.862-9.886-18.953C2389.553,1856.717,2396.438,1872.536,2395.165,1880.268Z" transform="translate(-2285.361 -1792.02)" fill="#fca66d"/>
      <path id="Path_14562" data-name="Path 14562" d="M2575.05,1873.252c3.646.857,16.518-8.521,8.535-14.862C2579.547,1855.182,2573.674,1867.506,2575.05,1873.252Z" transform="translate(-2406.823 -1790.36)" fill="#fca66d"/>
      <path id="Path_14563" data-name="Path 14563" d="M2578.548,1877.149c2.226.523,10.085-5.2,5.211-9.074C2581.293,1866.116,2577.708,1873.64,2578.548,1877.149Z" transform="translate(-2409.084 -1796.61)" fill="#e36445"/>
      <path id="Path_14564" data-name="Path 14564" d="M2442.6,1844.8a9.055,9.055,0,0,1,8.093,1.517c-1.392-2.995-8.192-7.142-12.223-6.069-4.171,1.11-3.481,7.252-2.557,10.263C2437.264,1847.906,2438.993,1845.76,2442.6,1844.8Z" transform="translate(-2318.571 -1779.116)" fill="#e7375c"/>
      <path id="Path_14565" data-name="Path 14565" d="M2521.2,1843.39c3.4.913,5.129,2.148,6.492,4.573,1.686-3.035,2.066-8.282-1.939-9.357-4.143-1.113-11.09,2.747-12.456,5.922C2515.4,1842.848,2517.624,1842.428,2521.2,1843.39Z" transform="translate(-2367.926 -1778.064)" fill="#e7375c"/>
      <path id="Path_14566" data-name="Path 14566" d="M2454.7,1853.452a5.359,5.359,0,1,0-5.358,5.393A5.375,5.375,0,0,0,2454.7,1853.452Z" transform="translate(-2324.116 -1784.161)" fill="#462627"/>
      <path id="Path_14567" data-name="Path 14567" d="M2443.645,1849.833a12.34,12.34,0,0,1,8.71.909c-1.393-2.469-6.014-5.91-10.046-5.026-4.17.915-6.332,5.987-6.5,8.943C2437.161,1852.512,2440.04,1850.624,2443.645,1849.833Z" transform="translate(-2318.949 -1782.592)" fill="#462627"/>
      <path id="Path_14568" data-name="Path 14568" d="M2528.016,1853.283a5.093,5.093,0,0,0-5.191-5.225,5.5,5.5,0,0,0-5.527,5.225,5.092,5.092,0,0,0,5.19,5.225A5.505,5.505,0,0,0,2528.016,1853.283Z" transform="translate(-2370.45 -1784.161)" fill="#462627"/>
      <path id="Path_14569" data-name="Path 14569" d="M2493.9,1891.319l-.315.011c1.048,1.959.26,4.6-2.091,4.6-2.378,0-3.68-1.975-2.621-4.425l-.388.015c-1.649,2.874,0,5.251,3.06,5.251S2495.543,1893.5,2493.9,1891.319Z" transform="translate(-2351.827 -1811.503)" fill="#e36445"/>
      <path id="Path_14570" data-name="Path 14570" d="M2518.166,1848.064a12.306,12.306,0,0,1,7.495,4.48c-.244-2.829-2.808-7.622-6.814-8.509-4.142-.917-8.375,2.514-9.74,5.13C2511.211,1847.781,2514.585,1847.271,2518.166,1848.064Z" transform="translate(-2365.275 -1781.523)" fill="#462627"/>
      <path id="Path_14571" data-name="Path 14571" d="M2399.932,1887c-2.068.761-9.623-5.175-5.188-9.946C2396.988,1874.647,2400.6,1882.947,2399.932,1887Z" transform="translate(-2292.129 -1802.218)" fill="#e36445"/>
      <path id="Path_14572" data-name="Path 14572" d="M2487.316,1922.578l-4.847-.759-1.324,2.172Z" transform="translate(-2347.604 -1830.779)" fill="#462627"/>
      <path id="Path_14573" data-name="Path 14573" d="M2510.029,1823c-5.818.952-7.1,1.419-7.041,1.918.127,1.075,5.944,1.454,8.283.822,7.454-2.014,11.952-6.222,12.935-9.765C2521.763,1819.231,2516.211,1821.985,2510.029,1823Z" transform="translate(-2361.407 -1763.882)" fill="#b22f1b"/>
      <path id="Path_14574" data-name="Path 14574" d="M2443.48,1822.294c-5.3-.811-8.818-4.708-10.741-8.167.12,4.859,3.5,9.335,9.6,10.946,1.953.515,8.408.762,8.844-.842C2451.336,1823.68,2448.855,1823.116,2443.48,1822.294Z" transform="translate(-2317.01 -1762.716)" fill="#b22f1b"/>
      <g id="Group_1857" data-name="Group 1857" transform="translate(132.161 322.424)">
        <rect id="Rectangle_2143" data-name="Rectangle 2143" width="13.573" height="2.023" transform="matrix(0.443, -0.897, 0.897, 0.443, 11.809, 163.031)" fill="#5e3b43"/>
        <path id="Path_14575" data-name="Path 14575" d="M2503.677,2998.573l-1.964,3.979.22,4.127,3.558-7.21Z" transform="translate(-2492.763 -2833.728)" fill="#5e3b43"/>
        <path id="Path_14576" data-name="Path 14576" d="M2529.6,2949.376l.631-4.713-1.994,4.04Z" transform="translate(-2509.528 -2799.656)" fill="#5e3b43"/>
        <rect id="Rectangle_2144" data-name="Rectangle 2144" width="13.573" height="2.024" transform="translate(11.629 128.16) rotate(-63.73)" fill="#5e3b43"/>
        <path id="Path_14577" data-name="Path 14577" d="M2547.7,2817.415l.55-4.106-1.738,3.52Z" transform="translate(-2521.075 -2716.638)" fill="#5e3b43"/>
        <path id="Path_14578" data-name="Path 14578" d="M2500.589,2903.81l-3.477,7.044.22,4.126,5.071-10.275Z" transform="translate(-2489.855 -2773.836)" fill="#5e3b43"/>
        <path id="Path_14579" data-name="Path 14579" d="M2527.751,2839.975l1.815.895,5.987-12.128.007-.049-1.8-.889Z" transform="translate(-2509.22 -2725.799)" fill="#5e3b43"/>
        <path id="Path_14580" data-name="Path 14580" d="M2546.021,2707.209l1.814.9,5.73-11.608.087-.657-1.624-.8Z" transform="translate(-2520.767 -2641.889)" fill="#5e3b43"/>
        <path id="Path_14581" data-name="Path 14581" d="M2565.791,2685.458l.469-3.5-1.48,3Z" transform="translate(-2532.622 -2633.624)" fill="#5e3b43"/>
        <rect id="Rectangle_2145" data-name="Rectangle 2145" width="13.572" height="2.024" transform="matrix(0.443, -0.897, 0.897, 0.443, 18.352, 79.304)" fill="#5e3b43"/>
        <path id="Path_14582" data-name="Path 14582" d="M2499.317,2809.941l-1.814-.9-4.991,10.111.141,2.631.657.324Z" transform="translate(-2486.948 -2713.944)" fill="#5e3b43"/>
        <rect id="Rectangle_2146" data-name="Rectangle 2146" width="13.573" height="2.023" transform="matrix(0.443, -0.897, 0.897, 0.443, 11.45, 93.288)" fill="#5e3b43"/>
        <rect id="Rectangle_2147" data-name="Rectangle 2147" width="13.573" height="2.024" transform="translate(18.172 44.432) rotate(-63.73)" fill="#5e3b43"/>
        <rect id="Rectangle_2148" data-name="Rectangle 2148" width="13.573" height="2.024" transform="matrix(0.443, -0.897, 0.897, 0.443, 25.075, 30.447)" fill="#5e3b43"/>
        <rect id="Rectangle_2149" data-name="Rectangle 2149" width="13.573" height="2.023" transform="matrix(0.443, -0.897, 0.897, 0.443, 11.27, 58.417)" fill="#5e3b43"/>
        <rect id="Rectangle_2150" data-name="Rectangle 2150" width="13.572" height="2.024" transform="matrix(0.443, -0.897, 0.897, 0.443, 4.368, 72.401)" fill="#5e3b43"/>
        <path id="Path_14583" data-name="Path 14583" d="M2566.106,2567.966l5.472-11.087.839-6.272-8.126,16.463Z" transform="translate(-2532.313 -2550.607)" fill="#5e3b43"/>
        <path id="Path_14584" data-name="Path 14584" d="M2488.061,2752.895l.165,3.094,1.2-2.423Z" transform="translate(-2484.135 -2678.456)" fill="#5e3b43"/>
        <rect id="Rectangle_2151" data-name="Rectangle 2151" width="13.573" height="2.023" transform="matrix(0.443, -0.897, 0.897, 0.443, 11.091, 23.545)" fill="#5e3b43"/>
        <rect id="Rectangle_2152" data-name="Rectangle 2152" width="13.573" height="2.024" transform="translate(4.188 37.53) rotate(-63.729)" fill="#5e3b43"/>
        <path id="Path_14585" data-name="Path 14585" d="M2484.426,2657.523l-1.115,2.258.219,4.127,2.71-5.49Z" transform="translate(-2481.133 -2618.18)" fill="#5e3b43"/>
        <path id="Path_14586" data-name="Path 14586" d="M2481.34,2562.76l-2.628,5.325.219,4.126,4.223-8.556Z" transform="translate(-2478.226 -2558.288)" fill="#5e3b43"/>
        <path id="Path_14587" data-name="Path 14587" d="M2503.349,3040.135l5.8,2.862.283-2.116-6.2-3.062Z" transform="translate(-2493.72 -2858.532)" fill="#5e3b43"/>
        <path id="Path_14588" data-name="Path 14588" d="M2503.9,2990.887l-3.252-1.606.124,2.316,2.234,1.1,1.814.9,4.882,2.409.282-2.115-4.269-2.107Z" transform="translate(-2492.087 -2827.856)" fill="#5e3b43"/>
        <path id="Path_14589" data-name="Path 14589" d="M2498.059,2940.745l.124,2.317,10.087,4.979,1.814.9.162.08.283-2.116-1.365-.673Z" transform="translate(-2490.454 -2797.18)" fill="#5e3b43"/>
        <path id="Path_14590" data-name="Path 14590" d="M2500.45,2894.665l-4.974-2.456.124,2.317,3.955,1.953,1.815.895,9.427,4.653.282-2.116-8.813-4.35Z" transform="translate(-2488.821 -2766.504)" fill="#5e3b43"/>
        <path id="Path_14591" data-name="Path 14591" d="M2505.719,2850,2493.55,2844l-.658-.325.124,2.316,11.809,5.829,1.814.9,4.706,2.323.283-2.115-4.094-2.021Z" transform="translate(-2487.188 -2735.828)" fill="#5e3b43"/>
        <path id="Path_14592" data-name="Path 14592" d="M2498.82,2799.336l-1.814-.9-6.7-3.306.123,2.317,5.678,2.8,1.814.9,12.17,6.008,1.8.888.283-2.115-1.188-.586Z" transform="translate(-2485.556 -2705.153)" fill="#5e3b43"/>
        <path id="Path_14593" data-name="Path 14593" d="M2502.275,2753.781l-12.17-6.007-1.815-.9-.565-.279.124,2.317,1.361.671,12.17,6.007,1.815.9,9.25,4.566.283-2.116-8.638-4.264Z" transform="translate(-2483.923 -2674.477)" fill="#5e3b43"/>
        <path id="Path_14594" data-name="Path 14594" d="M2507.545,2709.121l-12.17-6.007-1.814-.9-8.418-4.155.123,2.316,7.4,3.653,1.814.9,12.17,6.007,1.814.9,4.53,2.236.283-2.115-3.918-1.934Z" transform="translate(-2482.29 -2643.802)" fill="#5e3b43"/>
        <path id="Path_14595" data-name="Path 14595" d="M2500.645,2658.454l-1.815-.9-12.17-6.006-1.813-.9-2.287-1.129.124,2.316,1.268.626,1.814.9,12.17,6.006,1.814.9,12.171,6.006,1.624.8.282-2.116-1.012-.5Z" transform="translate(-2480.658 -2613.125)" fill="#5e3b43"/>
        <path id="Path_14596" data-name="Path 14596" d="M2504.1,2612.9l-12.17-6.006-1.815-.9-10.14-5.005.124,2.317,9.122,4.5,1.814.9,12.169,6.007,1.815.9,9.074,4.479.282-2.116-8.462-4.177Z" transform="translate(-2479.025 -2582.449)" fill="#5e3b43"/>
        <path id="Path_14597" data-name="Path 14597" d="M2509.37,2568.237l-12.169-6.007-1.814-.9-12.171-6.007-1.814-.9-4.009-1.979.123,2.317,2.99,1.476,1.815.9,12.17,6.007,1.814.895,12.17,6.007,1.815.9,4.354,2.149.283-2.116-3.742-1.847Z" transform="translate(-2477.392 -2551.774)" fill="#5e3b43"/>
      </g>
      <g id="Group_1858" data-name="Group 1858" transform="translate(27.094 308.831)">
        <path id="Path_14598" data-name="Path 14598" d="M2219.682,2913.115l-1.814-.9-4.552,9.222-.754,3.293,1.114.55Z" transform="translate(-2204.948 -2765.558)" fill="#5e3b43"/>
        <path id="Path_14599" data-name="Path 14599" d="M2360.717,2620.367l1.815.9.318-.646,4.8-11.965-.923-.456Z" transform="translate(-2298.584 -2573.41)" fill="#5e3b43"/>
        <path id="Path_14600" data-name="Path 14600" d="M2210.044,2951.742l-.732,3.2,1.414-2.864Z" transform="translate(-2202.894 -2790.536)" fill="#5e3b43"/>
        <path id="Path_14601" data-name="Path 14601" d="M2380.258,2586.254l4.218-10.517-5,10.13Z" transform="translate(-2310.44 -2552.896)" fill="#5e3b43"/>
        <rect id="Rectangle_2153" data-name="Rectangle 2153" width="13.573" height="2.023" transform="translate(13.815 144.848) rotate(-63.73)" fill="#5e3b43"/>
        <rect id="Rectangle_2154" data-name="Rectangle 2154" width="13.573" height="2.023" transform="matrix(0.443, -0.897, 0.897, 0.443, 34.522, 102.894)" fill="#5e3b43"/>
        <rect id="Rectangle_2155" data-name="Rectangle 2155" width="13.572" height="2.024" transform="translate(27.62 116.879) rotate(-63.73)" fill="#5e3b43"/>
        <rect id="Rectangle_2156" data-name="Rectangle 2156" width="13.573" height="2.023" transform="matrix(0.443, -0.897, 0.897, 0.443, 20.717, 130.863)" fill="#5e3b43"/>
        <rect id="Rectangle_2157" data-name="Rectangle 2157" width="13.573" height="2.023" transform="matrix(0.443, -0.897, 0.897, 0.443, 41.425, 88.91)" fill="#5e3b43"/>
        <rect id="Rectangle_2158" data-name="Rectangle 2158" width="13.573" height="2.024" transform="matrix(0.443, -0.897, 0.897, 0.443, 55.23, 60.941)" fill="#5e3b43"/>
        <rect id="Rectangle_2159" data-name="Rectangle 2159" width="13.573" height="2.024" transform="translate(48.328 74.925) rotate(-63.73)" fill="#5e3b43"/>
        <path id="Path_14602" data-name="Path 14602" d="M2257.868,2742.345l-1.814-.9-3.154,6.391-1.478,6.459.439.217Z" transform="translate(-2229.508 -2657.628)" fill="#5e3b43"/>
        <rect id="Rectangle_2160" data-name="Rectangle 2160" width="13.573" height="2.023" transform="translate(48.148 40.054) rotate(-63.73)" fill="#5e3b43"/>
        <rect id="Rectangle_2161" data-name="Rectangle 2161" width="21.375" height="2.023" transform="translate(55.051 26.069) rotate(-63.73)" fill="#5e3b43"/>
        <rect id="Rectangle_2162" data-name="Rectangle 2162" width="13.573" height="2.023" transform="translate(34.343 68.023) rotate(-63.73)" fill="#5e3b43"/>
        <rect id="Rectangle_2163" data-name="Rectangle 2163" width="13.573" height="2.023" transform="matrix(0.443, -0.897, 0.897, 0.443, 41.245, 54.038)" fill="#5e3b43"/>
        <path id="Path_14603" data-name="Path 14603" d="M2250.147,2781.876l-.008.035.016-.031Z" transform="translate(-2228.697 -2683.179)" fill="#5e3b43"/>
        <rect id="Rectangle_2164" data-name="Rectangle 2164" width="13.573" height="2.023" transform="translate(27.44 82.007) rotate(-63.73)" fill="#5e3b43"/>
        <path id="Path_14604" data-name="Path 14604" d="M2294.673,2570.68l-1.756,3.559-1.95,8.521,5.521-11.183Z" transform="translate(-2254.501 -2549.7)" fill="#5e3b43"/>
        <rect id="Rectangle_2165" data-name="Rectangle 2165" width="21.374" height="2.023" transform="translate(41.067 19.167) rotate(-63.73)" fill="#5e3b43"/>
        <path id="Path_14605" data-name="Path 14605" d="M2197.654,3033.791l-5.319-2.625-.463,2.027,5.028,2.482Z" transform="translate(-2191.872 -2840.734)" fill="#5e3b43"/>
        <path id="Path_14606" data-name="Path 14606" d="M2209.616,2992.435l-7.566-3.735-.464,2.028,7.275,3.59Z" transform="translate(-2198.012 -2813.894)" fill="#5e3b43"/>
        <path id="Path_14607" data-name="Path 14607" d="M2220.822,2952.959l.755-1.883-8.7-4.294-1.113-.55-.464,2.027.682.336Z" transform="translate(-2204.151 -2787.055)" fill="#5e3b43"/>
        <path id="Path_14608" data-name="Path 14608" d="M2225.025,2907.773l7.758,3.829.755-1.883-7.618-3.76-1.814-.9-2.626-1.3-.464,2.027,2.194,1.084Z" transform="translate(-2210.292 -2760.216)" fill="#5e3b43"/>
        <path id="Path_14609" data-name="Path 14609" d="M2238.068,2866.948l6.677,3.3.755-1.884-6.537-3.226-1.814-.9-5.954-2.939-.464,2.026,5.522,2.726Z" transform="translate(-2216.431 -2733.377)" fill="#5e3b43"/>
        <path id="Path_14610" data-name="Path 14610" d="M2251.111,2826.125l5.6,2.763.755-1.884-5.456-2.693-1.815-.895-9.281-4.582-.464,2.027,8.85,4.367Z" transform="translate(-2222.571 -2706.537)" fill="#5e3b43"/>
        <path id="Path_14611" data-name="Path 14611" d="M2262.339,2784.406l1.814.9,4.514,2.229.755-1.883-4.374-2.159-1.815-.9-12.17-6.006-.438-.217-.464,2.027.008,0Z" transform="translate(-2228.712 -2679.698)" fill="#5e3b43"/>
        <path id="Path_14612" data-name="Path 14612" d="M2263.211,2737.576l12.17,6.007,1.814.9,3.433,1.694.755-1.883-3.293-1.626-1.814-.9-12.17-6.008-1.814-.895-1.952-.964-.464,2.027,1.521.75Z" transform="translate(-2234.852 -2652.859)" fill="#5e3b43"/>
        <path id="Path_14613" data-name="Path 14613" d="M2276.253,2696.751l12.17,6.008,1.814.9,2.353,1.161.755-1.883-2.212-1.091-1.814-.9-12.17-6.007-1.814-.9-5.28-2.606-.464,2.027,4.848,2.392Z" transform="translate(-2240.991 -2626.02)" fill="#5e3b43"/>
        <path id="Path_14614" data-name="Path 14614" d="M2289.3,2655.927l12.171,6.007,1.815.9,1.271.628.755-1.883-1.131-.558-1.814-.9-12.17-6.007-1.815-.9-8.607-4.248-.463,2.026,8.175,4.035Z" transform="translate(-2247.132 -2599.18)" fill="#5e3b43"/>
        <path id="Path_14615" data-name="Path 14615" d="M2302.339,2615.1l12.17,6.006,1.813.9.19.094.755-1.883-.05-.025-1.815-.895-12.17-6.008-1.814-.9-11.935-5.891-.464,2.027,11.5,5.678Z" transform="translate(-2253.272 -2572.34)" fill="#5e3b43"/>
        <path id="Path_14616" data-name="Path 14616" d="M2301.4,2567.377l12.17,6.007,1.814.9,12.17,6.008.923.456.754-1.884-.783-.386-12.17-6.007-1.814-.9-12.169-6.007-1.815-.9-1.279-.631-.464,2.026.847.418Z" transform="translate(-2259.411 -2545.501)" fill="#5e3b43"/>
      </g>
      <path id="Path_14617" data-name="Path 14617" d="M2302.629,2495.726l-1.517,9.863,35.406,19.979,6.323-15.68Z" transform="translate(-2233.82 -2193.497)" fill="#5e3b43"/>
      <path id="Path_14618" data-name="Path 14618" d="M2472.238,2539.848l1.012,14.162,41.475-8.345,1.518-12.139Z" transform="translate(-2341.973 -2217.387)" fill="#5e3b43"/>
      <path id="Path_14619" data-name="Path 14619" d="M2505.714,3072.875c6,1.555,19.526,10.112,19.526,10.112h-26.049S2499.714,3071.319,2505.714,3072.875Z" transform="translate(-2359.009 -2558.173)" fill="#333148"/>
      <path id="Path_14620" data-name="Path 14620" d="M2141.51,3073.558c-6.575,1.517-23.267,9.863-23.267,9.863h26.049S2148.086,3072.041,2141.51,3073.558Z" transform="translate(-2118.244 -2558.607)" fill="#333148"/>
      <path id="Path_14621" data-name="Path 14621" d="M2185.105,2067.649a18.271,18.271,0,0,0-9.348-7.136c-2.023-.758-5.193-8.482-4.182-11.011s4.3.445,6.7-.441,3.877-3.709,6.406-.421,2.631,14.9,4.064,16.5S2185.105,2067.649,2185.105,2067.649Z" transform="translate(-2151.827 -1909.951)" fill="#f57e53"/>
      <path id="Path_14622" data-name="Path 14622" d="M2197.34,2048.208c-1.079-2.844-3.2-5.225-4.8-4.861s-2.637.719-2.851,1.961c-.21,1.221,2.352,8.2,3.671,8.151s.88-3.91.434-4.944,4.937,6.9,4.937,6.9A45.927,45.927,0,0,0,2197.34,2048.208Z" transform="translate(-2163.391 -1907.563)" fill="#fca66d"/>
      <path id="Path_14623" data-name="Path 14623" d="M2177.445,2064.087a4.57,4.57,0,0,0-3.828.8c-1.02,1.026-3.189-1.469-2.254-2.853.951-1.405,4.825-.58,5.521-.384C2180.176,2062.585,2179.738,2064.9,2177.445,2064.087Z" transform="translate(-2151.672 -1918.892)" fill="#fca66d"/>
      <path id="Path_14624" data-name="Path 14624" d="M2174.7,2053.336a4.564,4.564,0,0,0-3.9.3c-1.144.886-2.973-1.867-1.867-3.118,1.123-1.271,4.859.045,5.523.329C2177.6,2052.2,2176.869,2054.44,2174.7,2053.336Z" transform="translate(-2150.064 -1911.776)" fill="#fca66d"/>
      <path id="Path_14625" data-name="Path 14625" d="M2183.32,2074.435a4.578,4.578,0,0,0-3.816.772c-.912.957-3.334-1.42-2.568-2.813.815-1.482,4.969-.635,5.715-.432C2186.159,2072.914,2185.682,2075.232,2183.32,2074.435Z" transform="translate(-2155.245 -1925.403)" fill="#fca66d"/>
      <path id="Path_14626" data-name="Path 14626" d="M2577.947,2283.855c-3.06,1.666-3.9,2.846-3.9,4.11s-.422,6.238.674,7.334,6.491,1.6,6.407-.421-2.529-7.5-.675-10.116S2577.947,2283.855,2577.947,2283.855Z" transform="translate(-2406.266 -2059.245)" fill="#fca66d"/>
      <path id="Path_14627" data-name="Path 14627" d="M2573.065,2305.705c-.235,3.455-1.5,13.57-.825,14.414s3.148-12.493,3.148-12.493Z" transform="translate(-2405.052 -2073.401)" fill="#fca66d"/>
      <path id="Path_14628" data-name="Path 14628" d="M2563.873,2288.5c-2.567,2.787-8.691,4.792-8.694,5.972s8.956-2.115,8.956-2.115Z" transform="translate(-2394.393 -2062.528)" fill="#fca66d"/>
      <path id="Path_14629" data-name="Path 14629" d="M2581.251,2310.565c.521,3.424,1.484,13.574,2.325,14.25s.359-12.881.359-12.881Z" transform="translate(-2410.871 -2076.472)" fill="#fca66d"/>
      <path id="Path_14630" data-name="Path 14630" d="M2583.416,2305.616c1.413,2.866,5.04,11.537,6.029,11.887s-3.084-11.464-3.084-11.464Z" transform="translate(-2412.239 -2073.345)" fill="#fca66d"/>
    </g>
    <g id="Group_1862" data-name="Group 1862" transform="translate(101.814 94.293)">
      <g id="Group_1861" data-name="Group 1861" transform="translate(0)">
        <g id="Group_1860" data-name="Group 1860">
          <path id="Path_14631" data-name="Path 14631" d="M2468.131,1832.076a49.044,49.044,0,0,0-13.377,1.159,93.905,93.905,0,0,0-9.931,2.582c-2.217.709-4.381,1.643-6.553,2.5a24.825,24.825,0,0,1-3.707,1.377,9.621,9.621,0,0,1-4.033,0,24.751,24.751,0,0,1-3.708-1.377c-2.172-.854-4.336-1.788-6.553-2.5a93.9,93.9,0,0,0-9.931-2.582,49.053,49.053,0,0,0-13.377-1.159c-3.946.3-1.371,3.646,1.1,10.266,1.55,4.161,5.308,12.087,16.671,13.842,14.024,2.167,14.2-11.736,17.815-11.736s3.792,13.9,17.816,11.736c11.361-1.755,15.12-9.681,16.671-13.842C2469.5,1835.722,2472.076,1832.374,2468.131,1832.076Zm-44.275,20.411c-3.715,3.38-9.28,2.611-13.493.572a14.959,14.959,0,0,1-7.667-8.938,17.459,17.459,0,0,1-1.006-4.172,3.383,3.383,0,0,1,1.206-3.291,7.95,7.95,0,0,1,4.149-.933,37.627,37.627,0,0,1,8.828,1.139C2432.907,1840.657,2429.212,1847.612,2423.856,1852.488Zm39.545-12.538a17.45,17.45,0,0,1-1,4.172,14.969,14.969,0,0,1-7.667,8.938c-4.213,2.039-9.778,2.808-13.492-.572-5.357-4.875-9.051-11.831,7.981-15.623a37.618,37.618,0,0,1,8.828-1.139,7.952,7.952,0,0,1,4.15.933A3.383,3.383,0,0,1,2463.4,1839.95Z" transform="translate(-2394.924 -1831.981)" fill="#1a1818"/>
        </g>
      </g>
      <path id="Path_14632" data-name="Path 14632" d="M2405.386,1837.743s-2.948-3.6,11.882-.22,16.349,7.418,16.349,7.418,5.522-.9,0,7.059-11.658,8.069-16.613,5.393c-10.562-5.7-13.731-19.524-13.731-19.524" transform="translate(-2400.202 -1834.57)" fill="#1a1818"/>
      <path id="Path_14633" data-name="Path 14633" d="M2533.941,1835.745s2.948-3.6-11.882-.219-16.349,7.418-16.349,7.418-5.522-.9,0,7.059,11.658,8.069,16.613,5.394c10.562-5.705,13.731-19.525,13.731-19.525" transform="translate(-2463.391 -1833.307)" fill="#1a1818"/>
    </g>
  </g>
</svg>
